<svg xmlns="http://www.w3.org/2000/svg" xmlns:xlink="http://www.w3.org/1999/xlink" viewBox="0 0 241.812 148.71"><defs><style>.cls-1,.cls-6{fill:#dfe1e5;}.cls-2{isolation:isolate;}.cls-3{fill:#36b37e;}.cls-4{fill:#eceef1;}.cls-5{clip-path:url(#clip-path);}.cls-6{mix-blend-mode:multiply;}.cls-7{fill:#0065ff;}.cls-8{fill:#0052cc;}.cls-9{fill:#fff;}.cls-10{fill:#cfd4db;}.cls-11,.cls-13{fill:none;stroke-width:2px;}.cls-11{stroke:#cfd4db;}.cls-12{fill:url(#New_Gradient_Swatch_10);}.cls-13{stroke:#36b37e;}.cls-14{fill:#2684ff;}.cls-15{fill:url(#linear-gradient);}.cls-16{fill:url(#linear-gradient-2);}</style><clipPath id="clip-path"><path id="_Clipping_Path_" data-name="&lt;Clipping Path&gt;" class="cls-1" d="M116.2,19.694h0A19.694,19.694,0,0,1,135.892,0H222.2V121.018H135.892A19.694,19.694,0,0,0,116.2,140.712h0Z"/></clipPath><linearGradient id="New_Gradient_Swatch_10" x1="165.17" y1="89.138" x2="241.812" y2="89.138" gradientUnits="userSpaceOnUse"><stop offset="0" stop-color="#57d9a3"/><stop offset="1" stop-color="#abf5d1"/></linearGradient><linearGradient id="linear-gradient" x1="74.981" y1="-195.134" x2="63.765" y2="-206.701" gradientTransform="matrix(1, 0, 0, -1, 0, -144.29)" gradientUnits="userSpaceOnUse"><stop offset="0.18" stop-color="#0052cc"/><stop offset="1" stop-color="#2684ff"/></linearGradient><linearGradient id="linear-gradient-2" x1="62.678" y1="-208.344" x2="49.708" y2="-220.956" xlink:href="#linear-gradient"/></defs><title>Learn Jira</title><g class="cls-2"><g id="Layer_2" data-name="Layer 2"><g id="Software"><path class="cls-3" d="M222.252,17.119H10.84A10.84,10.84,0,0,0,0,27.959v94.5A10.84,10.84,0,0,0,10.84,133.3H94.772a8.313,8.313,0,0,1,7.38,4.769,15.689,15.689,0,0,0,28.091,0,8.313,8.313,0,0,1,7.38-4.769h84.629a10.84,10.84,0,0,0,10.84-10.84v-94.5A10.84,10.84,0,0,0,222.252,17.119Z"/><path id="_Clipping_Path_2" data-name="&lt;Clipping Path&gt;" class="cls-4" d="M116.2,19.694h0A19.694,19.694,0,0,0,96.5,0H10.2V121.018H96.5A19.694,19.694,0,0,1,116.2,140.712h0Z"/><path id="_Clipping_Path_3" data-name="&lt;Clipping Path&gt;" class="cls-1" d="M116.2,19.694h0A19.694,19.694,0,0,1,135.892,0H222.2V121.018H135.892A19.694,19.694,0,0,0,116.2,140.712h0Z"/><g class="cls-5"><rect class="cls-6" x="160.814" y="78.347" width="76.642" height="29.619" rx="3" ry="3"/></g><polygon class="cls-7" points="196.491 148.71 186.498 142.011 176.505 148.71 176.505 121.018 196.491 121.018 196.491 148.71"/><rect class="cls-8" x="176.505" y="121.018" width="19.986" height="6.14"/><rect class="cls-9" x="133.137" y="12.401" width="76.642" height="29.619" rx="3" ry="3"/><circle class="cls-10" cx="200.341" cy="20.073" r="5.604"/><line class="cls-11" x1="137.856" y1="16.971" x2="185.496" y2="16.971"/><line class="cls-11" x1="137.856" y1="23.077" x2="185.496" y2="23.077"/><line class="cls-11" x1="137.856" y1="35.362" x2="168.101" y2="35.362"/><rect class="cls-9" x="133.137" y="48.71" width="76.642" height="29.619" rx="3" ry="3"/><circle class="cls-10" cx="200.341" cy="56.381" r="5.604"/><line class="cls-11" x1="137.856" y1="54.28" x2="185.496" y2="54.28"/><line class="cls-11" x1="137.856" y1="60.385" x2="185.496" y2="60.385"/><line class="cls-11" x1="137.856" y1="72.671" x2="168.101" y2="72.671"/><rect class="cls-12" x="165.17" y="74.328" width="76.642" height="29.619" rx="3" ry="3"/><circle class="cls-3" cx="232.375" cy="82" r="5.604"/><line class="cls-13" x1="169.89" y1="79.899" x2="217.53" y2="79.899"/><line class="cls-13" x1="169.89" y1="86.004" x2="217.53" y2="86.004"/><line class="cls-13" x1="169.89" y1="98.29" x2="200.135" y2="98.29"/><g id="Layer_2-2" data-name="Layer 2"><g id="Blue"><path class="cls-14" d="M86.3,37.658H59.935a11.9,11.9,0,0,0,11.9,11.9h4.857V54.25A11.9,11.9,0,0,0,88.589,66.145v-26.2A2.287,2.287,0,0,0,86.3,37.658Z"/><path class="cls-15" d="M73.256,50.8H46.889A11.9,11.9,0,0,0,58.783,62.691h4.857v4.7a11.9,11.9,0,0,0,11.9,11.887v-26.2A2.287,2.287,0,0,0,73.256,50.8Z"/><path class="cls-16" d="M60.2,63.926H33.835a11.9,11.9,0,0,0,11.9,11.9H50.61v4.689a11.9,11.9,0,0,0,11.88,11.895v-26.2A2.287,2.287,0,0,0,60.2,63.926Z"/></g></g></g></g></g></svg>