<svg xmlns="http://www.w3.org/2000/svg" xmlns:xlink="http://www.w3.org/1999/xlink" viewBox="0 0 164.56 226.6656">
  <defs>
    <style>
      .cls-1 {
        fill: #0065ff;
      }

      .cls-2 {
        fill: url(#linear-gradient);
      }

      .cls-3 {
        fill: #ffc400;
      }

      .cls-4 {
        fill: #ffd740;
      }

      .cls-5 {
        fill: none;
        stroke: #ffd740;
        stroke-miterlimit: 10;
        stroke-width: 2px;
      }
    </style>
    <linearGradient id="linear-gradient" x1="14.3209" y1="213.8808" x2="79.904" y2="100.2875" gradientUnits="userSpaceOnUse">
      <stop offset="0.3502" stop-color="#ffc400"/>
      <stop offset="0.5216" stop-color="#ffb40b"/>
      <stop offset="0.7994" stop-color="#ffa01a"/>
      <stop offset="0.9874" stop-color="#ff991f"/>
    </linearGradient>
  </defs>
  <title>Medal</title>
  <g id="Layer_2" data-name="Layer 2">
    <g id="Objects">
      <path class="cls-1" d="M128.0951,226.6656a126.1978,126.1978,0,0,1,1.8032-32.4414,179.9268,179.9268,0,0,0,34.6617-.473c-27.9644-22.7706-41.9168-56.0526-38.55-91.9577l-49.0353,2.9289C72.5107,152.3355,91.0125,196.47,128.0951,226.6656Z"/>
      <path class="cls-2" d="M36.4649,226.6656a126.1978,126.1978,0,0,0-1.8032-32.4414A179.9268,179.9268,0,0,1,0,193.7513c27.9644-22.7706,41.9168-56.0526,38.55-91.9577l49.0353,2.9289C92.0493,152.3355,73.5475,196.47,36.4649,226.6656Z"/>
      <path class="cls-3" d="M155.2868,84.9891l-.0327.0245a11.3614,11.3614,0,0,0-3.268,14.3417l.0047.0089a11.3614,11.3614,0,0,1-7.9044,16.3986h0a11.3614,11.3614,0,0,0-9.183,11.5064l.0007.0232a11.3614,11.3614,0,0,1-14.22,11.3491l-.0344-.009A11.3614,11.3614,0,0,0,107.4,145.0183l-.0064.0143a11.3614,11.3614,0,0,1-17.7482,4.0435l-.0018-.0015a11.3614,11.3614,0,0,0-14.727,0l-.0021.0018a11.3614,11.3614,0,0,1-17.7481-4.0434l-.0068-.0152a11.3614,11.3614,0,0,0-13.249-6.3856l-.0346.009a11.3614,11.3614,0,0,1-14.22-11.3493l.0007-.0229a11.3614,11.3614,0,0,0-9.183-11.5066h0a11.3614,11.3614,0,0,1-7.9043-16.3988l.0044-.0084A11.3614,11.3614,0,0,0,9.3056,85.0133l-.0324-.0243a11.3614,11.3614,0,0,1,0-18.19l.0327-.0245a11.3614,11.3614,0,0,0,3.2679-14.3417l-.0047-.009a11.3614,11.3614,0,0,1,7.9044-16.3986h0a11.3614,11.3614,0,0,0,9.183-11.5065l-.0007-.0229a11.3614,11.3614,0,0,1,14.22-11.3492l.0345.009A11.3614,11.3614,0,0,0,57.16,6.77l.0064-.0143A11.3614,11.3614,0,0,1,74.9147,2.7125l.0018.0015a11.3614,11.3614,0,0,0,14.7271,0l.002-.0017a11.3614,11.3614,0,0,1,17.7481,4.0434l.0066.0149a11.3614,11.3614,0,0,0,13.249,6.3857l.0347-.009a11.3614,11.3614,0,0,1,14.22,11.3492l-.0007.0231a11.3614,11.3614,0,0,0,9.183,11.5065h0a11.3614,11.3614,0,0,1,7.9043,16.3988l-.0044.0084a11.3614,11.3614,0,0,0,3.2679,14.3419l.0323.0242A11.3614,11.3614,0,0,1,155.2868,84.9891Z"/>
      <circle class="cls-4" cx="82.28" cy="75.3835" r="52.5821"/>
      <circle class="cls-5" cx="82.28" cy="75.3835" r="60.6118"/>
      <path class="cls-1" d="M84.3922,50.5833l6.7884,13.7549a2.3554,2.3554,0,0,0,1.7735,1.2885l15.1794,2.2057A2.3554,2.3554,0,0,1,109.439,71.85L98.4551,82.5567a2.3554,2.3554,0,0,0-.6774,2.0849l2.5929,15.118a2.3554,2.3554,0,0,1-3.4176,2.4831L83.3761,95.1049a2.3554,2.3554,0,0,0-2.1922,0l-13.5769,7.1378A2.3554,2.3554,0,0,1,64.1894,99.76l2.5929-15.118a2.3554,2.3554,0,0,0-.6774-2.0849L55.1211,71.85a2.3554,2.3554,0,0,1,1.3054-4.0177l15.1794-2.2057a2.3554,2.3554,0,0,0,1.7735-1.2885l6.7884-13.7549A2.3554,2.3554,0,0,1,84.3922,50.5833Z"/>
    </g>
  </g>
</svg>
