<svg xmlns="http://www.w3.org/2000/svg" xmlns:xlink="http://www.w3.org/1999/xlink" viewBox="0 0 224.01 152.97"><defs><style>.cls-1{fill:#deebff;}.cls-2{isolation:isolate;}.cls-3{fill:#57d9a3;}.cls-10,.cls-4,.cls-8{mix-blend-mode:multiply;}.cls-4{fill:url(#linear-gradient);}.cls-5{fill:#79f2c0;}.cls-6{fill:url(#New_Gradient_Swatch_16);}.cls-7{fill:url(#New_Gradient_Swatch_15);}.cls-8{fill:url(#New_Gradient_Swatch_16-2);}.cls-9{fill:url(#New_Gradient_Swatch_15-2);}.cls-10{fill:url(#New_Gradient_Swatch_16-3);}.cls-11{fill:url(#linear-gradient-2);}.cls-12{clip-path:url(#clip-path);}.cls-13{fill:#b2d4ff;}.cls-14,.cls-17{fill:none;stroke-miterlimit:10;stroke-width:2px;}.cls-14{stroke:#0052cc;}.cls-15{fill:#4c9aff;}.cls-16{fill:#0052cc;}.cls-17{stroke:#deebff;}</style><linearGradient id="linear-gradient" x1="56.04" y1="165.15" x2="136.34" y2="26.07" gradientUnits="userSpaceOnUse"><stop offset="0" stop-color="#c1c7d0" stop-opacity="0.1"/><stop offset="1" stop-color="#c1c7d0"/></linearGradient><linearGradient id="New_Gradient_Swatch_16" x1="71.48" y1="101.07" x2="224.01" y2="101.07" gradientUnits="userSpaceOnUse"><stop offset="0" stop-color="#2684ff"/><stop offset="1" stop-color="#b2d4ff"/></linearGradient><linearGradient id="New_Gradient_Swatch_15" x1="53.64" y1="74.79" x2="230.48" y2="74.79" gradientUnits="userSpaceOnUse"><stop offset="0" stop-color="#0065ff"/><stop offset="1" stop-color="#4c9aff"/></linearGradient><linearGradient id="New_Gradient_Swatch_16-2" x1="142.54" y1="-345.79" x2="348.64" y2="-345.79" gradientTransform="matrix(0.83, -0.23, 0.27, 0.96, 36.02, 486.47)" xlink:href="#New_Gradient_Swatch_16"/><linearGradient id="New_Gradient_Swatch_15-2" x1="53.64" y1="77.06" x2="230.48" y2="77.06" xlink:href="#New_Gradient_Swatch_15"/><linearGradient id="New_Gradient_Swatch_16-3" x1="142.54" y1="-377.35" x2="348.64" y2="-377.35" gradientTransform="matrix(0.83, -0.23, 0.27, 0.96, 36.02, 486.47)" xlink:href="#New_Gradient_Swatch_16"/><linearGradient id="linear-gradient-2" y1="27.61" x2="152.53" y2="27.61" gradientUnits="userSpaceOnUse"><stop offset="0" stop-color="#42526e"/><stop offset="1" stop-color="#5e6c84"/></linearGradient><clipPath id="clip-path"><rect id="_Rectangle_" data-name="&lt;Rectangle&gt;" class="cls-1" x="187.79" y="83.87" width="22.76" height="22.76" rx="4.34" ry="4.34"/></clipPath></defs><title>Objects-Credit Cards</title><g class="cls-2"><g id="Layer_2" data-name="Layer 2"><g id="Objects"><rect id="_Rectangle_2" data-name="&lt;Rectangle&gt;" class="cls-3" width="152.53" height="103.8" rx="7.6" ry="7.6"/><path class="cls-4" d="M61.39,63.27a7.6,7.6,0,0,0-7.6,7.6V103.8h91.15a7.6,7.6,0,0,0,7.6-7.6V63.27Z"/><rect class="cls-5" x="9.74" y="49.17" width="133.47" height="14.09"/><rect id="_Rectangle_3" data-name="&lt;Rectangle&gt;" class="cls-6" x="71.48" y="49.17" width="152.53" height="103.8" rx="7.6" ry="7.6"/><path class="cls-7" d="M224,56.78a7.6,7.6,0,0,0-7.6-7.6h-5.89c-3,13.44-8.2,21.54-13,26.7-17.44,18.76-43.88,14.07-70,17.85,25.45,3.21,49,12.5,70.29,1.34,8.1-4.24,18.31-12.71,26.24-31.74Z"/><path class="cls-8" d="M80.72,99.73a76,76,0,0,0-9.24,5.21v28.22a79.64,79.64,0,0,1,14.69-20.26c12.66-12.48,26.94-17.11,41.31-19.18C112.54,91.84,96.94,92.05,80.72,99.73Z"/><path class="cls-9" d="M197.51,75.88c4.8-5.17,10-13.26,13-26.7H79.08a7.6,7.6,0,0,0-7.6,7.6v48.16a76,76,0,0,1,9.24-5.21c16.22-7.68,31.82-7.89,46.75-6C153.63,89.95,180.07,94.64,197.51,75.88Z"/><path class="cls-10" d="M197.51,75.88c4.8-5.17,10-13.26,13-26.7H79.08a7.6,7.6,0,0,0-7.6,7.6v48.16a76,76,0,0,1,9.24-5.21c16.22-7.68,31.82-7.89,46.75-6C153.63,89.95,180.07,94.64,197.51,75.88Z"/><rect class="cls-11" y="16.22" width="152.53" height="22.78"/><circle class="cls-5" cx="19.72" cy="84.98" r="9.98"/><rect id="_Rectangle_4" data-name="&lt;Rectangle&gt;" class="cls-1" x="187.79" y="83.87" width="22.76" height="22.76" rx="4.34" ry="4.34"/><g class="cls-12"><rect class="cls-13" x="191.05" y="87.13" width="16.24" height="16.24" rx="2.17" ry="2.17" transform="translate(294.42 -103.92) rotate(90)"/></g><line class="cls-14" x1="82.45" y1="133.68" x2="143.4" y2="133.68"/><line class="cls-14" x1="186.7" y1="133.68" x2="210.48" y2="133.68"/><line class="cls-14" x1="82.45" y1="141.23" x2="143.4" y2="141.23"/><polygon class="cls-15" points="92.88 69.73 98.26 75.12 92.88 80.5 82.11 69.73 92.88 58.96 98.26 64.35 92.88 69.73"/><rect class="cls-16" x="94.45" y="65.93" width="7.62" height="7.62" transform="translate(-20.53 89.91) rotate(-45)"/><polygon class="cls-5" points="114.42 69.73 103.65 80.5 98.26 75.12 103.65 69.73 98.26 64.35 103.65 58.96 114.42 69.73"/><rect class="cls-17" x="82.93" y="117.23" width="3.75" height="5.85" rx="1.15" ry="1.15"/><rect class="cls-17" x="90.15" y="117.23" width="3.75" height="5.85" rx="1.15" ry="1.15"/><rect class="cls-17" x="97.37" y="117.23" width="3.75" height="5.85" rx="1.15" ry="1.15"/><rect class="cls-17" x="104.59" y="117.23" width="3.75" height="5.85" rx="1.15" ry="1.15"/><rect class="cls-17" x="116.97" y="117.23" width="3.75" height="5.85" rx="1.15" ry="1.15"/><rect class="cls-17" x="124.19" y="117.23" width="3.75" height="5.85" rx="1.15" ry="1.15"/><rect class="cls-17" x="131.41" y="117.23" width="3.75" height="5.85" rx="1.15" ry="1.15"/><rect class="cls-17" x="138.63" y="117.23" width="3.75" height="5.85" rx="1.15" ry="1.15"/><rect class="cls-17" x="151.01" y="117.23" width="3.75" height="5.85" rx="1.15" ry="1.15"/><rect class="cls-17" x="158.24" y="117.23" width="3.75" height="5.85" rx="1.15" ry="1.15"/><rect class="cls-17" x="165.46" y="117.23" width="3.75" height="5.85" rx="1.15" ry="1.15"/><rect class="cls-17" x="172.68" y="117.23" width="3.75" height="5.85" rx="1.15" ry="1.15"/><rect class="cls-17" x="185.06" y="117.23" width="3.75" height="5.85" rx="1.15" ry="1.15"/><rect class="cls-17" x="192.28" y="117.23" width="3.75" height="5.85" rx="1.15" ry="1.15"/><rect class="cls-17" x="199.5" y="117.23" width="3.75" height="5.85" rx="1.15" ry="1.15"/><rect class="cls-17" x="206.72" y="117.23" width="3.75" height="5.85" rx="1.15" ry="1.15"/></g></g></g></svg>