<svg width="160" height="53" viewBox="0 0 160 53" fill="none" xmlns="http://www.w3.org/2000/svg">
<path fill-rule="evenodd" clip-rule="evenodd" d="M0 5C0 2.23858 2.23858 0 5 0L155 0C157.761 0 160 2.23858 160 5V47C160 49.7614 157.761 52 155 52H5C2.23858 52 0 49.7614 0 47V5Z" transform="translate(0 0.400024)" fill="white"/>
<path d="M5 1H155C157.209 1 159 2.79086 159 5V47C159 49.2091 157.209 51 155 51H5C2.79086 51 1 49.2091 1 47V5C1 2.79086 2.79086 1 5 1Z" transform="translate(0 0.400024)" stroke="#E2E2E2" stroke-width="2"/>
<path d="M72.9209 13.094C72.5729 14.486 71.9729 15.518 71.1209 16.19C70.2809 16.862 69.2789 17.198 68.1149 17.198C67.3349 17.198 66.6269 17.054 65.9909 16.766C65.3549 16.478 64.8089 16.058 64.3529 15.506C63.8969 14.942 63.5429 14.264 63.2909 13.472C63.0389 12.668 62.9129 11.75 62.9129 10.718C62.9129 9.746 63.0389 8.864 63.2909 8.072C63.5429 7.268 63.8969 6.578 64.3529 6.002C64.8089 5.426 65.3549 4.982 65.9909 4.67C66.6389 4.346 67.3589 4.184 68.1509 4.184C69.3869 4.184 70.3949 4.538 71.1749 5.246C71.9669 5.954 72.5009 6.962 72.7769 8.27L71.0669 8.522C70.9949 8.09 70.8749 7.7 70.7069 7.352C70.5389 6.992 70.3289 6.68 70.0769 6.416C69.8249 6.152 69.5309 5.948 69.1949 5.804C68.8709 5.66 68.5109 5.588 68.1149 5.588C67.6109 5.588 67.1489 5.708 66.7289 5.948C66.3209 6.176 65.9669 6.512 65.6669 6.956C65.3789 7.388 65.1509 7.922 64.9829 8.558C64.8269 9.182 64.7489 9.896 64.7489 10.7C64.7489 11.528 64.8329 12.26 65.0009 12.896C65.1689 13.532 65.4029 14.066 65.7029 14.498C66.0029 14.93 66.3629 15.26 66.7829 15.488C67.2029 15.704 67.6649 15.812 68.1689 15.812C69.0329 15.812 69.7529 15.554 70.3289 15.038C70.9049 14.522 71.3189 13.754 71.5709 12.734L72.9209 13.094ZM80.2332 17V10.79C80.2332 10.25 80.1072 9.818 79.8552 9.494C79.6152 9.17 79.1712 9.008 78.5232 9.008C78.2472 9.008 77.9832 9.056 77.7312 9.152C77.4912 9.236 77.2632 9.344 77.0472 9.476C76.8312 9.608 76.6392 9.746 76.4712 9.89C76.3032 10.022 76.1652 10.136 76.0572 10.232V17H74.5092V4.4H76.0572V9.17C76.2012 9.026 76.3632 8.87 76.5432 8.702C76.7232 8.522 76.9392 8.36 77.1912 8.216C77.4432 8.072 77.7252 7.952 78.0372 7.856C78.3612 7.748 78.7272 7.694 79.1352 7.694C79.7472 7.694 80.2512 7.832 80.6472 8.108C81.0432 8.372 81.3252 8.696 81.4932 9.08C81.6132 9.356 81.6912 9.638 81.7272 9.926C81.7752 10.202 81.7992 10.478 81.7992 10.754V17H80.2332ZM89.7035 17C89.6915 16.892 89.6615 16.742 89.6135 16.55C89.5655 16.358 89.5355 16.142 89.5235 15.902C89.1515 16.238 88.7015 16.532 88.1735 16.784C87.6455 17.036 87.1055 17.162 86.5535 17.162C86.1695 17.162 85.7915 17.108 85.4195 17C85.0595 16.904 84.7355 16.754 84.4475 16.55C84.1715 16.346 83.9495 16.088 83.7815 15.776C83.6135 15.464 83.5295 15.098 83.5295 14.678C83.5295 13.682 84.0095 12.896 84.9695 12.32C85.9295 11.732 87.4235 11.33 89.4515 11.114V10.52C89.4515 10.052 89.2895 9.668 88.9655 9.368C88.6535 9.056 88.1075 8.9 87.3275 8.9C86.9675 8.9 86.6675 8.96 86.4275 9.08C86.1875 9.188 85.9895 9.326 85.8335 9.494C85.6895 9.662 85.5815 9.842 85.5095 10.034C85.4375 10.214 85.3835 10.376 85.3475 10.52L83.8895 10.232C84.0935 9.464 84.4835 8.852 85.0595 8.396C85.6355 7.928 86.4335 7.694 87.4535 7.694C88.2095 7.694 88.8275 7.79 89.3075 7.982C89.7995 8.174 90.1715 8.444 90.4235 8.792C90.6155 9.032 90.7535 9.314 90.8375 9.638C90.9215 9.95 90.9635 10.304 90.9635 10.7V15.092C90.9635 15.62 90.9995 16.016 91.0715 16.28C91.1435 16.532 91.2095 16.742 91.2695 16.91V17H89.7035ZM89.4515 12.14C87.9995 12.344 86.9135 12.632 86.1935 13.004C85.4735 13.364 85.1135 13.85 85.1135 14.462C85.1135 14.63 85.1315 14.798 85.1675 14.966C85.2155 15.134 85.2995 15.29 85.4195 15.434C85.5515 15.566 85.7375 15.68 85.9775 15.776C86.2175 15.86 86.5295 15.902 86.9135 15.902C87.4175 15.902 87.8735 15.824 88.2815 15.668C88.6895 15.5 89.0795 15.254 89.4515 14.93V12.14ZM97.3686 16.946C97.0926 17.018 96.8466 17.072 96.6306 17.108C96.4266 17.144 96.2046 17.162 95.9646 17.162C95.6886 17.162 95.4126 17.126 95.1366 17.054C94.8726 16.994 94.6326 16.874 94.4166 16.694C94.2126 16.514 94.0446 16.268 93.9126 15.956C93.7806 15.644 93.7146 15.242 93.7146 14.75C93.7146 13.574 93.7146 12.506 93.7146 11.546C93.7266 10.574 93.7386 9.716 93.7506 8.972H92.3286V7.856H93.7506L93.9486 4.94H95.2626V7.856H97.3686V8.972H95.2626V14.75C95.2626 15.026 95.3046 15.242 95.3886 15.398C95.4846 15.542 95.5926 15.65 95.7126 15.722C95.8446 15.794 95.9826 15.842 96.1266 15.866C96.2706 15.878 96.4026 15.884 96.5226 15.884C96.6186 15.884 96.7566 15.878 96.9366 15.866C97.1286 15.842 97.2726 15.818 97.3686 15.794V16.946Z" transform="translate(0 14.4)" fill="#1A75BB"/>
</svg>
