<?xml version="1.0" encoding="UTF-8"?>
<svg width="21px" height="20px" viewBox="0 0 21 20" version="1.1" xmlns="http://www.w3.org/2000/svg" xmlns:xlink="http://www.w3.org/1999/xlink">
    <!-- Generator: Sketch 49 (51002) - http://www.bohemiancoding.com/sketch -->
    <title>american-express</title>
    <desc>Created with Sketch.</desc>
    <defs>
        <radialGradient cx="13.6990177%" cy="14.0496179%" fx="13.6990177%" fy="14.0496179%" r="123.166138%" gradientTransform="translate(0.136990,0.140496),scale(0.978238,1.000000),translate(-0.136990,-0.140496)" id="radialGradient-1">
            <stop stop-color="#00B3E8" offset="0%"></stop>
            <stop stop-color="#0099CD" offset="42.7%"></stop>
            <stop stop-color="#008EBE" offset="52.44%"></stop>
            <stop stop-color="#006C91" offset="84.03%"></stop>
            <stop stop-color="#005F80" offset="100%"></stop>
        </radialGradient>
        <radialGradient cx="13.8026721%" cy="14.054321%" fx="13.8026721%" fy="14.054321%" r="119.622017%" id="radialGradient-2">
            <stop stop-color="#00B3E8" offset="0%"></stop>
            <stop stop-color="#0099CD" offset="42.7%"></stop>
            <stop stop-color="#008EBE" offset="52.44%"></stop>
            <stop stop-color="#006C91" offset="84.03%"></stop>
            <stop stop-color="#005F80" offset="100%"></stop>
        </radialGradient>
        <radialGradient cx="-261.462094%" cy="-190.462037%" fx="-261.462094%" fy="-190.462037%" r="1050.47132%" gradientTransform="translate(-2.614621,-1.904620),scale(1.000000,0.936078),translate(2.614621,1.904620)" id="radialGradient-3">
            <stop stop-color="#00B3E8" offset="0%"></stop>
            <stop stop-color="#0099CD" offset="42.7%"></stop>
            <stop stop-color="#008EBE" offset="52.44%"></stop>
            <stop stop-color="#006C91" offset="84.03%"></stop>
            <stop stop-color="#005F80" offset="100%"></stop>
        </radialGradient>
        <radialGradient cx="13.8026721%" cy="14.0519694%" fx="13.8026721%" fy="14.0519694%" r="299.057326%" gradientTransform="translate(0.138027,0.140520),scale(0.400000,1.000000),translate(-0.138027,-0.140520)" id="radialGradient-4">
            <stop stop-color="#00B3E8" offset="0%"></stop>
            <stop stop-color="#0099CD" offset="42.7%"></stop>
            <stop stop-color="#008EBE" offset="52.44%"></stop>
            <stop stop-color="#006C91" offset="84.03%"></stop>
            <stop stop-color="#005F80" offset="100%"></stop>
        </radialGradient>
        <radialGradient cx="-145.758897%" cy="-188.430276%" fx="-145.758897%" fy="-188.430276%" r="976.452274%" gradientTransform="translate(-1.457589,-1.884303),scale(0.383307,1.000000),translate(1.457589,1.884303)" id="radialGradient-5">
            <stop stop-color="#00B3E8" offset="0%"></stop>
            <stop stop-color="#0099CD" offset="42.7%"></stop>
            <stop stop-color="#008EBE" offset="52.44%"></stop>
            <stop stop-color="#006C91" offset="84.03%"></stop>
            <stop stop-color="#005F80" offset="100%"></stop>
        </radialGradient>
        <radialGradient cx="13.8035857%" cy="14.054321%" fx="13.8035857%" fy="14.054321%" r="279.116973%" gradientTransform="translate(0.138036,0.140543),scale(0.428571,1.000000),translate(-0.138036,-0.140543)" id="radialGradient-6">
            <stop stop-color="#00B3E8" offset="0%"></stop>
            <stop stop-color="#0099CD" offset="42.7%"></stop>
            <stop stop-color="#008EBE" offset="52.44%"></stop>
            <stop stop-color="#006C91" offset="84.03%"></stop>
            <stop stop-color="#005F80" offset="100%"></stop>
        </radialGradient>
        <radialGradient cx="45.0398688%" cy="-190.906356%" fx="45.0398688%" fy="-190.906356%" r="984.887176%" gradientTransform="translate(0.450399,-1.909064),scale(0.396304,1.000000),translate(-0.450399,1.909064)" id="radialGradient-7">
            <stop stop-color="#00B3E8" offset="0%"></stop>
            <stop stop-color="#0099CD" offset="42.7%"></stop>
            <stop stop-color="#008EBE" offset="52.44%"></stop>
            <stop stop-color="#006C91" offset="84.03%"></stop>
            <stop stop-color="#005F80" offset="100%"></stop>
        </radialGradient>
        <radialGradient cx="13.8026721%" cy="14.054321%" fx="13.8026721%" fy="14.054321%" r="119.621103%" gradientTransform="translate(0.138027,0.140543),scale(1.000000,0.833333),translate(-0.138027,-0.140543)" id="radialGradient-8">
            <stop stop-color="#00B3E8" offset="0%"></stop>
            <stop stop-color="#0099CD" offset="42.7%"></stop>
            <stop stop-color="#008EBE" offset="52.44%"></stop>
            <stop stop-color="#006C91" offset="84.03%"></stop>
            <stop stop-color="#005F80" offset="100%"></stop>
        </radialGradient>
        <radialGradient cx="-192.84188%" cy="-190.851664%" fx="-192.84188%" fy="-190.851664%" r="1243.49715%" gradientTransform="translate(-1.928419,-1.908517),scale(1.000000,0.791878),translate(1.928419,1.908517)" id="radialGradient-9">
            <stop stop-color="#00B3E8" offset="0%"></stop>
            <stop stop-color="#0099CD" offset="42.7%"></stop>
            <stop stop-color="#008EBE" offset="52.44%"></stop>
            <stop stop-color="#006C91" offset="84.03%"></stop>
            <stop stop-color="#005F80" offset="100%"></stop>
        </radialGradient>
        <radialGradient cx="13.8035857%" cy="14.0554968%" fx="13.8035857%" fy="14.0554968%" r="119.621103%" gradientTransform="translate(0.138036,0.140555),scale(1.000000,0.333333),translate(-0.138036,-0.140555)" id="radialGradient-10">
            <stop stop-color="#00B3E8" offset="0%"></stop>
            <stop stop-color="#0099CD" offset="42.7%"></stop>
            <stop stop-color="#008EBE" offset="52.44%"></stop>
            <stop stop-color="#006C91" offset="84.03%"></stop>
            <stop stop-color="#005F80" offset="100%"></stop>
        </radialGradient>
        <radialGradient cx="-1368.26951%" cy="-190.198613%" fx="-1368.26951%" fy="-190.198613%" r="3856.85567%" gradientTransform="translate(-13.682695,-1.901986),scale(1.000000,0.254450),translate(13.682695,1.901986)" id="radialGradient-11">
            <stop stop-color="#00B3E8" offset="0%"></stop>
            <stop stop-color="#0099CD" offset="42.7%"></stop>
            <stop stop-color="#008EBE" offset="52.44%"></stop>
            <stop stop-color="#006C91" offset="84.03%"></stop>
            <stop stop-color="#005F80" offset="100%"></stop>
        </radialGradient>
        <radialGradient cx="13.8026721%" cy="14.0554968%" fx="13.8026721%" fy="14.0554968%" r="119.619504%" id="radialGradient-12">
            <stop stop-color="#00B3E8" offset="0%"></stop>
            <stop stop-color="#0099CD" offset="42.7%"></stop>
            <stop stop-color="#008EBE" offset="52.44%"></stop>
            <stop stop-color="#006C91" offset="84.03%"></stop>
            <stop stop-color="#005F80" offset="100%"></stop>
        </radialGradient>
        <radialGradient cx="-365.974729%" cy="-359.738958%" fx="-365.974729%" fy="-359.738958%" r="1050.44926%" gradientTransform="translate(-3.659747,-3.597390),scale(1.000000,0.936078),translate(3.659747,3.597390)" id="radialGradient-13">
            <stop stop-color="#00B3E8" offset="0%"></stop>
            <stop stop-color="#0099CD" offset="42.7%"></stop>
            <stop stop-color="#008EBE" offset="52.44%"></stop>
            <stop stop-color="#006C91" offset="84.03%"></stop>
            <stop stop-color="#005F80" offset="100%"></stop>
        </radialGradient>
        <radialGradient cx="13.8035857%" cy="14.0531452%" fx="13.8035857%" fy="14.0531452%" r="299.060751%" gradientTransform="translate(0.138036,0.140531),scale(0.400000,1.000000),translate(-0.138036,-0.140531)" id="radialGradient-14">
            <stop stop-color="#00B3E8" offset="0%"></stop>
            <stop stop-color="#0099CD" offset="42.7%"></stop>
            <stop stop-color="#008EBE" offset="52.44%"></stop>
            <stop stop-color="#006C91" offset="84.03%"></stop>
            <stop stop-color="#005F80" offset="100%"></stop>
        </radialGradient>
        <radialGradient cx="-26.6317664%" cy="-358.94582%" fx="-26.6317664%" fy="-358.94582%" r="981.966213%" gradientTransform="translate(-0.266318,-3.589458),scale(0.379910,1.000000),translate(0.266318,3.589458)" id="radialGradient-15">
            <stop stop-color="#00B3E8" offset="0%"></stop>
            <stop stop-color="#0099CD" offset="42.7%"></stop>
            <stop stop-color="#008EBE" offset="52.44%"></stop>
            <stop stop-color="#006C91" offset="84.03%"></stop>
            <stop stop-color="#005F80" offset="100%"></stop>
        </radialGradient>
        <radialGradient cx="13.8015302%" cy="14.0554968%" fx="13.8015302%" fy="14.0554968%" r="119.623615%" id="radialGradient-16">
            <stop stop-color="#00B3E8" offset="0%"></stop>
            <stop stop-color="#0099CD" offset="42.7%"></stop>
            <stop stop-color="#008EBE" offset="52.44%"></stop>
            <stop stop-color="#006C91" offset="84.03%"></stop>
            <stop stop-color="#005F80" offset="100%"></stop>
        </radialGradient>
        <radialGradient cx="-631.448215%" cy="-360.261971%" fx="-631.448215%" fy="-360.261971%" r="1161.61455%" gradientTransform="translate(-6.314482,-3.602620),scale(1.000000,0.847869),translate(6.314482,3.602620)" id="radialGradient-17">
            <stop stop-color="#00B3E8" offset="0%"></stop>
            <stop stop-color="#0099CD" offset="42.7%"></stop>
            <stop stop-color="#008EBE" offset="52.44%"></stop>
            <stop stop-color="#006C91" offset="84.03%"></stop>
            <stop stop-color="#005F80" offset="100%"></stop>
        </radialGradient>
        <radialGradient cx="13.8026721%" cy="14.0531452%" fx="13.8026721%" fy="14.0531452%" r="119.625443%" id="radialGradient-18">
            <stop stop-color="#00B3E8" offset="0%"></stop>
            <stop stop-color="#0099CD" offset="42.7%"></stop>
            <stop stop-color="#008EBE" offset="52.44%"></stop>
            <stop stop-color="#006C91" offset="84.03%"></stop>
            <stop stop-color="#005F80" offset="100%"></stop>
        </radialGradient>
        <radialGradient cx="-564.984564%" cy="-361.015066%" fx="-564.984564%" fy="-361.015066%" r="1243.83757%" gradientTransform="translate(-5.649846,-3.610151),scale(1.000000,0.793032),translate(5.649846,3.610151)" id="radialGradient-19">
            <stop stop-color="#00B3E8" offset="0%"></stop>
            <stop stop-color="#0099CD" offset="42.7%"></stop>
            <stop stop-color="#008EBE" offset="52.44%"></stop>
            <stop stop-color="#006C91" offset="84.03%"></stop>
            <stop stop-color="#005F80" offset="100%"></stop>
        </radialGradient>
        <radialGradient cx="13.8035857%" cy="14.0554968%" fx="13.8035857%" fy="14.0554968%" r="119.618362%" gradientTransform="translate(0.138036,0.140555),scale(1.000000,0.833333),translate(-0.138036,-0.140555)" id="radialGradient-20">
            <stop stop-color="#00B3E8" offset="0%"></stop>
            <stop stop-color="#0099CD" offset="42.7%"></stop>
            <stop stop-color="#008EBE" offset="52.44%"></stop>
            <stop stop-color="#006C91" offset="84.03%"></stop>
            <stop stop-color="#005F80" offset="100%"></stop>
        </radialGradient>
        <radialGradient cx="-737.039255%" cy="-360.261971%" fx="-737.039255%" fy="-360.261971%" r="1161.56354%" gradientTransform="translate(-7.370393,-3.602620),scale(1.000000,0.847869),translate(7.370393,3.602620)" id="radialGradient-21">
            <stop stop-color="#00B3E8" offset="0%"></stop>
            <stop stop-color="#0099CD" offset="42.7%"></stop>
            <stop stop-color="#008EBE" offset="52.44%"></stop>
            <stop stop-color="#006C91" offset="84.03%"></stop>
            <stop stop-color="#005F80" offset="100%"></stop>
        </radialGradient>
    </defs>
    <g id="Zoeken-3.0" stroke="none" stroke-width="1" fill="none" fill-rule="evenodd">
        <g id="VD-Homepage-boeker-met-Betaal-iconen_Desktop" transform="translate(-1253.000000, -827.000000)" fill-rule="nonzero">
            <g id="Zoek-balk---passagiers---1200" transform="translate(134.000000, 470.000000)">
                <g id="Group-2" transform="translate(0.000000, 335.000000)">
                    <g id="Betaalopties" transform="translate(1009.000000, 22.000000)">
                        <g id="american-express" transform="translate(110.000000, 0.000000)">
                            <rect id="Rectangle-path" fill="#FFFFFF" x="0" y="0" width="20.2186047" height="19.7790698"></rect>
                            <path d="M19.4865116,14.6297674 C19.4865116,14.6297674 19.4474419,14.6274419 19.4106977,14.6255814 L17.827907,14.6265116 L17.827907,14.5181395 C17.647907,14.592093 17.4562791,14.6297674 17.2725581,14.6297674 C17.2725581,14.6297674 17.2339535,14.6274419 17.1967442,14.6255814 L16.2590698,14.6260465 L16.2590698,14.6306977 L13.9906977,14.6306977 L13.9906977,14.6348837 L12.4493023,14.6348837 L12.4493023,14.1697674 C12.4493023,14.1697674 12.4516279,13.8390698 12.452093,13.7767442 C12.4386047,13.7767442 12.3869767,13.7767442 12.3497674,13.7767442 C12.3497674,13.9716279 12.3497674,14.6348837 12.3497674,14.6348837 L10.7911628,14.6348837 L10.7911628,13.7051163 C10.5348837,13.8088372 10.2413953,13.8353488 9.9627907,13.8353488 C9.9627907,13.8353488 9.86790698,13.8353488 9.81255814,13.8353488 C9.81255814,13.995814 9.81255814,14.6306977 9.81255814,14.6306977 L7.97348837,14.6306977 C7.97348837,14.6306977 7.67395349,14.3004651 7.51302326,14.1232558 C7.35023256,14.3013953 7.04883721,14.6306977 7.04883721,14.6306977 L4.04325581,14.6306977 L4.04325581,11.2223256 L6.99860465,11.2223256 C6.99860465,11.2223256 7.32697674,11.5809302 7.51581395,11.7874419 C7.7055814,11.5823256 8.03488372,11.2265116 8.03488372,11.2265116 L8.23813953,11.2265116 L8.71953488,11.2223256 L10.2269767,11.2223256 C10.3144186,11.2162791 10.5451163,11.2148837 10.7911628,11.307907 L10.7911628,11.2306977 L12.7623256,11.2306977 C12.8590698,11.2237209 13.1102326,11.2190698 13.3702326,11.3269767 L13.3702326,11.2306977 L15.7939535,11.2306977 L16.2590698,11.2306977 L16.2590698,11.3283721 C16.532093,11.2181395 16.7832558,11.2251163 16.8218605,11.2274419 L18.4655814,11.2265116 L18.4655814,11.3316279 C18.7413953,11.2176744 18.9976744,11.2251163 19.0362791,11.2274419 L20.2190698,11.2269767 L20.2190698,0 L0,0 L0,8.67813953 L0.691627907,7.03627907 L2.19302326,7.03627907 C2.19302326,7.03627907 2.36604651,7.44790698 2.37302326,7.46511628 C2.37302326,7.40325581 2.37302326,7.03627907 2.37302326,7.03627907 L4.13116279,7.03627907 C4.13116279,7.03627907 4.39395349,7.62139535 4.51953488,7.90046512 C4.64418605,7.62186047 4.90604651,7.03627907 4.90604651,7.03627907 L6.08186047,7.03627907 L6.19953488,7.03627907 L6.66465116,7.03627907 L8.36744186,7.03627907 L8.50604651,7.03627907 L8.97116279,7.03627907 L10.3376744,7.03627907 C10.4339535,7.02930233 10.6855814,7.02418605 10.9465116,7.13255814 L10.9465116,7.03627907 L12.0432558,7.03627907 L12.5083721,7.03627907 L12.5083721,7.24186047 C12.7372093,7.09953488 12.9986047,7.02697674 13.2613953,7.01534884 C13.2613953,7.01534884 14.1,7.03813953 14.132093,7.03906977 L14.1330233,7.03627907 L15.6302326,7.03627907 C15.6302326,7.03627907 15.7930233,7.42418605 15.7972093,7.43534884 C15.7972093,7.33813953 15.7972093,7.03627907 15.7972093,7.03627907 L17.4125581,7.03627907 C17.4125581,7.03627907 17.6432558,7.41767442 17.6688372,7.46046512 C17.6688372,7.39255814 17.6688372,7.03627907 17.6688372,7.03627907 L19.2311628,7.03627907 L19.2311628,10.44 L17.6367442,10.44 C17.6367442,10.44 17.3986047,10.0455814 17.3683721,9.99488372 C17.3683721,10.0316279 17.3683721,10.44 17.3683721,10.44 L15.3655814,10.44 C15.3655814,10.44 15.1939535,10.0386047 15.1432558,9.92093023 C14.9353488,9.92093023 14.8218605,9.92093023 14.612093,9.92093023 C14.5637209,10.0367442 14.3948837,10.44 14.3948837,10.44 L13.0683721,10.44 L13.0353488,10.4353488 C12.8883721,10.4144186 12.6962791,10.3469767 12.5074419,10.2274419 L12.5074419,10.4483721 L11.4106977,10.4483721 C11.4106977,10.4483721 11.4106977,10.4409302 11.4106977,10.44 L10.0246512,10.44 L10.0246512,9.97488372 C10.0246512,9.97488372 10.0269767,9.64465116 10.0274419,9.58186047 C10.0139535,9.58186047 9.96232558,9.58186047 9.92511628,9.58186047 C9.92511628,9.77674419 9.92511628,10.44 9.92511628,10.44 L8.97069767,10.44 L8.36744186,10.44 L6.66465116,10.44 L6.54697674,10.44 L5.09813953,10.44 C5.09813953,10.44 5.09813953,10.3981395 5.09813953,10.387907 C5.09069767,10.404186 5.07395349,10.44 5.07395349,10.44 L3.96465116,10.44 C3.96465116,10.44 3.9455814,10.3995349 3.93534884,10.3762791 C3.93534884,10.3911628 3.93534884,10.44 3.93534884,10.44 L1.92186047,10.44 C1.92186047,10.44 1.75255814,10.0367442 1.70418605,9.92093023 C1.49534884,9.92093023 1.38186047,9.92093023 1.17348837,9.92093023 C1.12325581,10.0381395 0.951627907,10.44 0.951627907,10.44 L0,10.44 L0,19.7790698 L20.2186047,19.7790698 L20.2186047,14.4288372 C19.9939535,14.5665116 19.7325581,14.6297674 19.4865116,14.6297674 Z" id="Shape" fill="url(#radialGradient-1)"></path>
                            <g id="Group" transform="translate(0.000000, 7.441860)">
                                <g id="SVGID_2_-link" transform="translate(8.837209, 0.000000)" fill="url(#radialGradient-3)">
                                    <path d="M1.69488372,2.53348837 L1.69488372,2.05209302 C1.69488372,2.05209302 1.66930233,1.67534884 1.27627907,1.67534884 L0.665116279,1.67534884 L0.665116279,2.53348837 L0.0372093023,2.53348837 L0.0372093023,0.06 L1.56093023,0.06 C1.56093023,0.06 2.35627907,-0.0362790698 2.35627907,0.784186047 C2.35627907,1.21116279 2.00465116,1.36186047 2.00465116,1.36186047 C2.00465116,1.36186047 2.30976744,1.50465116 2.30976744,1.92325581 L2.30976744,2.53395349 L1.69488372,2.53395349 M0.665116279,1.09348837 L1.31395349,1.09348837 C1.50232558,1.09348837 1.6572093,0.988837209 1.6572093,0.859069767 C1.6572093,0.729302326 1.50232558,0.624651163 1.31395349,0.624651163 L0.665116279,0.624651163 L0.665116279,1.09348837" id="SVGID_2_"></path>
                                </g>
                                <g id="SVGID_5_-link" transform="translate(12.093023, 0.000000)" fill="url(#radialGradient-5)">
                                    <path d="M5.84837209,2.53348837 L4.85209302,0.88 L4.85209302,2.53348837 L4.31209302,2.53348837 L4.21116279,2.53348837 L3.62139535,2.53348837 L3.39906977,2.0144186 L2.25209302,2.0144186 L2.03395349,2.53348837 L1.45627907,2.53348837 L1.35162791,2.53348837 L1.05023256,2.53348837 C1.05023256,2.53348837 0.205116279,2.41209302 0.205116279,1.3655814 C0.205116279,-0.00744186047 1.16418605,0.0469767442 1.1972093,0.0386046512 L1.97162791,0.0595348837 L1.97162791,0.61627907 L1.33581395,0.624651163 C1.33581395,0.624651163 0.920930233,0.624651163 0.870697674,1.16511628 C0.864651163,1.22697674 0.861860465,1.28418605 0.862325581,1.3372093 C0.864651163,2.17348837 1.58837209,1.91395349 1.61162791,1.90604651 L2.39023256,0.06 L3.26930233,0.06 L4.21069767,2.30372093 L4.21069767,0.06 L5.09813953,0.06 L6.08186047,1.68837209 L6.08186047,0.06 L6.71395349,0.06 L6.71395349,2.53348837 L5.84837209,2.53348837 M2.52046512,1.38232558 L3.13116279,1.38232558 L2.83023256,0.645581395 L2.52046512,1.38232558" id="SVGID_5_"></path>
                                </g>
                                <g id="SVGID_8_-link" fill="url(#radialGradient-7)">
                                    <path d="M5.60511628,2.53348837 L5.60511628,0.826046512 L4.81813953,2.53348837 L4.30325581,2.53348837 L3.51209302,0.833953488 L3.51209302,2.53348837 L2.96372093,2.53348837 L2.88,2.53348837 L2.27302326,2.53348837 L2.05534884,2.0144186 L0.908372093,2.0144186 L0.686511628,2.53348837 L0,2.53348837 L1.04232558,0.06 L1.9255814,0.06 L2.88,2.33302326 L2.88,0.06 L3.87209302,0.06 L4.5627907,1.59627907 L5.24930233,0.06 L6.24139535,0.06 L6.24139535,2.53348837 L5.60511628,2.53348837 M1.17627907,1.38232558 L1.78744186,1.38232558 L1.48186047,0.645581395 L1.17627907,1.38232558" id="SVGID_8_"></path>
                                </g>
                                <g id="SVGID_11_-link" transform="translate(6.511628, 0.000000)" fill="url(#radialGradient-9)">
                                    <polyline id="SVGID_11_" points="0.0772093023 2.53348837 0.0772093023 0.0595348837 2.03627907 0.0595348837 2.03627907 0.637209302 0.709302326 0.637209302 0.709302326 1.01813953 2.0027907 1.01813953 2.0027907 1.57906977 0.709302326 1.57906977 0.709302326 1.99767442 2.03627907 1.99767442 2.03627907 2.53348837 0.0772093023 2.53348837"></polyline>
                                </g>
                                <g id="SVGID_14_-link" transform="translate(11.162791, 0.000000)" fill="url(#radialGradient-11)">
                                    <polyline id="SVGID_14_" points="0.290697674 2.54186047 0.290697674 0.0595348837 0.922325581 0.0595348837 0.922325581 2.54186047 0.290697674 2.54186047"></polyline>
                                </g>
                            </g>
                            <g id="Group" transform="translate(4.186047, 11.627907)">
                                <g id="SVGID_17_-link" transform="translate(6.976744, 0.000000)" fill="url(#radialGradient-13)">
                                    <path d="M1.79302326,2.54186047 L1.79302326,2.06046512 C1.79302326,2.06046512 1.76744186,1.68372093 1.3744186,1.68372093 L0.76372093,1.68372093 L0.76372093,2.54186047 L0.135348837,2.54186047 L0.135348837,0.0679069767 L1.65906977,0.0679069767 C1.65906977,0.0679069767 2.4544186,-0.028372093 2.4544186,0.792093023 C2.4544186,1.21906977 2.1027907,1.36976744 2.1027907,1.36976744 C2.1027907,1.36976744 2.40418605,1.51209302 2.40418605,1.93023256 L2.40418605,2.54139535 L1.79302326,2.54139535 M0.763255814,1.10186047 L1.41255814,1.10186047 C1.60046512,1.10186047 1.75534884,0.997209302 1.75534884,0.86744186 C1.75534884,0.737674419 1.60046512,0.633023256 1.41255814,0.633023256 L0.763255814,0.633023256 L0.763255814,1.10186047" id="SVGID_17_"></path>
                                </g>
                                <g id="SVGID_20_-link" fill="url(#radialGradient-15)">
                                    <path d="M4.58372093,2.53767442 L4.03534884,2.53767442 L3.36976744,1.80511628 L2.7,2.53767442 L2.31906977,2.53767442 L0.364186047,2.53767442 L0.364186047,0.0595348837 L2.31906977,0.0595348837 L2.64976744,0.0595348837 L3.36976744,0.846511628 L4.09395349,0.0637209302 L4.57534884,0.0637209302 L4.57534884,0.0595348837 L6.09906977,0.0595348837 C6.09906977,0.0595348837 6.8944186,-0.028372093 6.8944186,0.78744186 C6.8944186,1.51581395 6.63069767,1.74232558 5.81860465,1.74232558 L5.20325581,1.74232558 L5.20325581,2.53767442 L4.58372093,2.53767442 M3.79674419,1.32 L4.57534884,2.18232558 L4.57534884,0.461860465 L3.79674419,1.32 M0.99627907,2.00232558 L2.31906977,2.00232558 L2.93860465,1.32 L2.31906977,0.641395349 L0.99627907,0.641395349 L0.99627907,1.02186047 L2.2855814,1.02186047 L2.2855814,1.58325581 L0.99627907,1.58325581 L0.99627907,2.00232558 M5.20325581,1.0972093 L5.85209302,1.0972093 C6.04046512,1.0972093 6.19534884,0.99255814 6.19534884,0.862790698 C6.19534884,0.733488372 6.04046512,0.628372093 5.85209302,0.628372093 L5.20325581,0.628372093 L5.20325581,1.0972093" id="SVGID_20_"></path>
                                </g>
                                <g id="SVGID_23_-link" transform="translate(11.627907, 0.000000)" fill="url(#radialGradient-17)">
                                    <path d="M1.42418605,2.53348837 L0.306511628,2.53348837 L0.306511628,1.96372093 L1.28604651,1.96372093 C1.28604651,1.96372093 1.63767442,2.0055814 1.63767442,1.76744186 C1.63767442,1.54465116 1.10604651,1.56232558 1.10604651,1.56232558 C1.10604651,1.56232558 0.239534884,1.63767442 0.239534884,0.825581395 C0.239534884,0.0176744186 1.02232558,0.0637209302 1.02232558,0.0637209302 L2.22837209,0.0637209302 L2.22837209,0.641395349 L1.2572093,0.641395349 C1.2572093,0.641395349 0.921860465,0.573953488 0.921860465,0.817674419 C0.921860465,1.02186047 1.37767442,0.993023256 1.37767442,0.993023256 C1.37767442,0.993023256 2.33674419,0.922325581 2.33674419,1.66697674 C2.33674419,2.46604651 1.71906977,2.53674419 1.5,2.53674419 C1.45302326,2.53674419 1.42418605,2.53348837 1.42418605,2.53348837" id="SVGID_23_"></path>
                                </g>
                                <g id="SVGID_26_-link" transform="translate(9.302326, 0.000000)" fill="url(#radialGradient-19)">
                                    <polyline id="SVGID_26_" points="0.388372093 2.53767442 0.388372093 0.0679069767 2.34697674 0.0679069767 2.34697674 0.641395349 1.02046512 0.641395349 1.02046512 1.02186047 2.31395349 1.02186047 2.31395349 1.58325581 1.02046512 1.58325581 1.02046512 2.00232558 2.34697674 2.00232558 2.34697674 2.53767442 0.388372093 2.53767442"></polyline>
                                </g>
                                <g id="SVGID_29_-link" transform="translate(13.953488, 0.000000)" fill="url(#radialGradient-21)">
                                    <path d="M1.31302326,2.53348837 L0.195348837,2.53348837 L0.195348837,1.96372093 L1.17116279,1.96372093 C1.17116279,1.96372093 1.52697674,2.0055814 1.52697674,1.76744186 C1.52697674,1.54465116 0.995348837,1.56232558 0.995348837,1.56232558 C0.995348837,1.56232558 0.128837209,1.63767442 0.128837209,0.825581395 C0.128837209,0.0176744186 0.911627907,0.0637209302 0.911627907,0.0637209302 L2.11348837,0.0637209302 L2.11348837,0.641395349 L1.14604651,0.641395349 C1.14604651,0.641395349 0.811162791,0.573953488 0.811162791,0.817674419 C0.811162791,1.02186047 1.26744186,0.993023256 1.26744186,0.993023256 C1.26744186,0.993023256 2.22604651,0.922325581 2.22604651,1.66697674 C2.22604651,2.46604651 1.60837209,2.53674419 1.38930233,2.53674419 C1.34139535,2.53674419 1.31302326,2.53348837 1.31302326,2.53348837" id="SVGID_29_"></path>
                                </g>
                            </g>
                        </g>
                    </g>
                </g>
            </g>
        </g>
    </g>
</svg>