<?xml version="1.0" encoding="utf-8"?>
<!-- Generator: Adobe Illustrator 16.0.0, SVG Export Plug-In . SVG Version: 6.00 Build 0)  -->
<!DOCTYPE svg PUBLIC "-//W3C//DTD SVG 1.1//EN" "http://www.w3.org/Graphics/SVG/1.1/DTD/svg11.dtd">
<svg version="1.1" id="ICE" xmlns="http://www.w3.org/2000/svg" xmlns:xlink="http://www.w3.org/1999/xlink" x="0px" y="0px"
	 width="260px" height="80px" viewBox="0 0 260 80" style="enable-background:new 0 0 260 80;" xml:space="preserve">
<style type="text/css">
<![CDATA[
	.st0{clip-path:url(#SVGID_26_);fill:#6F909D;}
	.st1{clip-path:url(#SVGID_4_);fill:#6F909D;}
	.st2{clip-path:url(#SVGID_16_);fill:#6F909D;}
	.st3{clip-path:url(#SVGID_6_);fill:#6F909D;}
	.st4{clip-path:url(#SVGID_18_);fill:#6F909D;}
	.st5{clip-path:url(#SVGID_28_);fill:#D8232A;}
	.st6{clip-path:url(#SVGID_8_);fill:#6F909D;}
	.st7{clip-path:url(#SVGID_20_);fill:#6F909D;}
	.st8{clip-path:url(#SVGID_30_);fill:#D8232A;}
	.st9{clip-path:url(#SVGID_10_);fill:#6F909D;}
	.st10{clip-path:url(#SVGID_22_);fill:#6F909D;}
	.st11{clip-path:url(#SVGID_32_);fill:#D8232A;}
	.st12{clip-path:url(#SVGID_12_);fill:#6F909D;}
	.st13{clip-path:url(#SVGID_24_);fill:#6F909D;}
	.st14{clip-path:url(#SVGID_2_);fill:#6F909D;}
	.st15{clip-path:url(#SVGID_14_);fill:#6F909D;}
]]>
</style>
<g>
	<g>
		<defs>
			<polyline id="SVGID_1_" points="55.4,65 59.2,47.2 61.1,47.2 57.4,65 55.4,65 			"/>
		</defs>
		<clipPath id="SVGID_2_">
			<use xlink:href="#SVGID_1_"  style="overflow:visible;"/>
		</clipPath>
		<rect x="50.4" y="42.2" class="st14" width="15.7" height="27.7"/>
	</g>
	<g>
		<defs>
			<path id="SVGID_3_" d="M68.3,53.3c1.2-1.1,2.3-1.8,3.7-1.8c2,0,3,1,2.5,3.4L72.4,65h-1.9l2-9.6c0.3-1.4,0-2.3-1.5-2.3
				c-0.7,0-1.4,0.3-2,0.7c-0.9,0.7-1.2,1.4-1.4,2.4L65.9,65H64l2.8-13.1h1.8L68.3,53.3"/>
		</defs>
		<clipPath id="SVGID_4_">
			<use xlink:href="#SVGID_3_"  style="overflow:visible;"/>
		</clipPath>
		<rect x="59" y="46.5" class="st1" width="20.7" height="23.5"/>
	</g>
	<g>
		<defs>
			<path id="SVGID_5_" d="M83.4,51.8h2.2l-0.3,1.6h-2.2l-1.9,9c-0.1,0.4-0.4,1,0.7,1h1.3L82.7,65h-2.1c-1.1,0-1.9-0.2-1.5-2.2l2-9.4
				h-1.8l0.3-1.6h1.8l0.8-3.6h1.8L83.4,51.8"/>
		</defs>
		<clipPath id="SVGID_6_">
			<use xlink:href="#SVGID_5_"  style="overflow:visible;"/>
		</clipPath>
		<rect x="74.1" y="43.3" class="st3" width="16.5" height="26.7"/>
	</g>
	<g>
		<defs>
			<path id="SVGID_7_" d="M96,60.6c-0.4,2.6-2.2,4.7-5,4.7c-2.5,0-3.9-1.7-2.8-7c0.6-2.8,2.2-6.9,5.7-6.9c4.3,0,3.2,4,2.6,7.1h-6.4
				c-0.3,1.8-1.4,5.2,1.3,5.2c1.8,0,2.6-1.7,2.8-3.1H96z M95,57c0.3-1.5,0.9-4-1.3-4c-2.2,0-2.7,2.4-3.1,4H95z"/>
		</defs>
		<clipPath id="SVGID_8_">
			<use xlink:href="#SVGID_7_"  style="overflow:visible;"/>
		</clipPath>
		<rect x="82.9" y="46.5" class="st6" width="19.2" height="23.9"/>
	</g>
	<g>
		<defs>
			<path id="SVGID_9_" d="M105,54L105,54c1.2-1.7,2.5-2.5,4.4-2.3l-0.4,1.8c-2.3-0.4-4.1,1.1-4.6,3.5l-1.7,8h-1.9l2.8-13.1h1.8
				L105,54"/>
		</defs>
		<clipPath id="SVGID_10_">
			<use xlink:href="#SVGID_9_"  style="overflow:visible;"/>
		</clipPath>
		<rect x="95.9" y="46.7" class="st9" width="18.5" height="23.3"/>
	</g>
	<g>
		<defs>
			<path id="SVGID_11_" d="M115.5,53.3c1.2-1.1,2.3-1.8,3.7-1.8c2,0,3,1,2.5,3.4L119.6,65h-1.9l2-9.6c0.3-1.4,0-2.3-1.5-2.3
				c-0.7,0-1.4,0.3-2,0.7c-0.9,0.7-1.2,1.4-1.4,2.4L113,65h-1.9l2.8-13.1h1.8L115.5,53.3"/>
		</defs>
		<clipPath id="SVGID_12_">
			<use xlink:href="#SVGID_11_"  style="overflow:visible;"/>
		</clipPath>
		<rect x="106.2" y="46.5" class="st12" width="20.7" height="23.5"/>
	</g>
	<g>
		<defs>
			<path id="SVGID_13_" d="M133.7,65c-0.1,0-0.3,0-0.4,0.1c-1.6,0.1-2.2-0.1-2-1.9h0c-0.7,1.2-2.1,2.1-3.4,2.1
				c-2.6,0-3.1-1.5-2.6-3.9c0.1-0.5,0.6-2.4,2.6-3.2c1.2-0.5,4-1.5,4.3-1.7c0.5-0.3,0.5-0.8,0.7-1.5c0.3-1.5-0.1-2.1-1.6-2.1
				c-1.7,0-2.1,0.8-2.4,2.3h-1.7c0.5-2.7,2.1-3.9,4.7-3.9c3.9,0,2.9,3.3,2.8,3.6l-1.6,7.5c-0.1,0.3-0.2,0.8,0.1,1
				c0.2,0.1,0.5,0,0.8,0L133.7,65z M132.2,57.9c-1,0.5-2.2,0.9-3.3,1.4c-1,0.4-1.5,1.4-1.6,2.3c-0.3,1.3-0.1,2.2,1.4,2.2
				c0.7,0,2.4-0.5,2.8-2.7L132.2,57.9z"/>
		</defs>
		<clipPath id="SVGID_14_">
			<use xlink:href="#SVGID_13_"  style="overflow:visible;"/>
		</clipPath>
		<rect x="120.2" y="46.5" class="st15" width="19.7" height="23.9"/>
	</g>
	<g>
		<defs>
			<path id="SVGID_15_" d="M143.7,51.8h2.2l-0.3,1.6h-2.2l-1.9,9c-0.1,0.4-0.4,1,0.7,1h1.3L143,65H141c-1.1,0-1.9-0.2-1.5-2.2l2-9.4
				h-1.8l0.3-1.6h1.8l0.8-3.6h1.8L143.7,51.8"/>
		</defs>
		<clipPath id="SVGID_16_">
			<use xlink:href="#SVGID_15_"  style="overflow:visible;"/>
		</clipPath>
		<rect x="134.4" y="43.3" class="st2" width="16.5" height="26.7"/>
	</g>
	<g>
		<defs>
			<path id="SVGID_17_" d="M147.9,65l2.8-13.1h1.9L149.7,65H147.9z M151.1,49.6l0.5-2.4h1.9l-0.5,2.4H151.1z"/>
		</defs>
		<clipPath id="SVGID_18_">
			<use xlink:href="#SVGID_17_"  style="overflow:visible;"/>
		</clipPath>
		<rect x="142.9" y="42.2" class="st4" width="15.6" height="27.7"/>
	</g>
	<g>
		<defs>
			<path id="SVGID_19_" d="M159.8,65.3c-2.8,0-4.3-1.7-3.1-7.4c0.8-4,2.8-6.5,6.1-6.5s4.2,2.5,3.3,6.5
				C164.9,63.7,162.7,65.3,159.8,65.3z M162.5,53.1c-1.9,0-3.1,1.5-3.9,5.5c-0.7,3.1-0.5,5.2,1.7,5.2c2.2,0,3.2-2.1,3.9-5.2
				C164.9,54.6,164.4,53.1,162.5,53.1z"/>
		</defs>
		<clipPath id="SVGID_20_">
			<use xlink:href="#SVGID_19_"  style="overflow:visible;"/>
		</clipPath>
		<rect x="151.3" y="46.5" class="st7" width="20.1" height="23.9"/>
	</g>
	<g>
		<defs>
			<path id="SVGID_21_" d="M174.5,53.3c1.2-1.1,2.3-1.8,3.7-1.8c2,0,3,1,2.5,3.4L178.6,65h-1.9l2-9.6c0.3-1.4,0-2.3-1.5-2.3
				c-0.7,0-1.4,0.3-2,0.7c-0.9,0.7-1.2,1.4-1.4,2.4L172,65h-1.9l2.8-13.1h1.8L174.5,53.3"/>
		</defs>
		<clipPath id="SVGID_22_">
			<use xlink:href="#SVGID_21_"  style="overflow:visible;"/>
		</clipPath>
		<rect x="165.2" y="46.5" class="st10" width="20.7" height="23.5"/>
	</g>
	<g>
		<defs>
			<path id="SVGID_23_" d="M192.7,65c-0.1,0-0.3,0-0.4,0.1c-1.6,0.1-2.2-0.1-2-1.9h0c-0.7,1.2-2.1,2.1-3.4,2.1
				c-2.6,0-3.1-1.5-2.6-3.9c0.1-0.5,0.6-2.4,2.6-3.2c1.2-0.5,4-1.5,4.3-1.7c0.5-0.3,0.5-0.8,0.7-1.5c0.3-1.5-0.1-2.1-1.6-2.1
				c-1.7,0-2.1,0.8-2.4,2.3h-1.7c0.5-2.7,2.1-3.9,4.7-3.9c3.9,0,2.9,3.3,2.8,3.6l-1.6,7.5c-0.1,0.3-0.2,0.8,0.1,1
				c0.2,0.1,0.5,0,0.8,0L192.7,65z M191.2,57.9c-1,0.5-2.2,0.9-3.3,1.4c-1,0.4-1.5,1.4-1.6,2.3c-0.3,1.3-0.1,2.2,1.4,2.2
				c0.7,0,2.4-0.5,2.8-2.7L191.2,57.9z"/>
		</defs>
		<clipPath id="SVGID_24_">
			<use xlink:href="#SVGID_23_"  style="overflow:visible;"/>
		</clipPath>
		<rect x="179.2" y="46.5" class="st13" width="19.7" height="23.9"/>
	</g>
	<g>
		<defs>
			<polyline id="SVGID_25_" points="197.7,65 201.4,47.2 203.3,47.2 199.5,65 197.7,65 			"/>
		</defs>
		<clipPath id="SVGID_26_">
			<use xlink:href="#SVGID_25_"  style="overflow:visible;"/>
		</clipPath>
		<rect x="192.7" y="42.2" class="st0" width="15.6" height="27.7"/>
	</g>
	<g>
		<defs>
			<polyline id="SVGID_27_" points="65.5,41.9 60.1,41.9 65.6,16 71,16 65.5,41.9 			"/>
		</defs>
		<clipPath id="SVGID_28_">
			<use xlink:href="#SVGID_27_"  style="overflow:visible;"/>
		</clipPath>
		<rect x="55.1" y="11" class="st5" width="20.9" height="35.9"/>
	</g>
	<g>
		<defs>
			<path id="SVGID_29_" d="M90.5,24.5c-0.1-1.5-0.3-4.5-4.8-4.5c-2.6,0-6.8,1.7-8.3,9c-1,4.6,0,8.8,4.5,8.8c3,0,5.4-1.7,6.8-4.9h5.4
				c-2.3,5.6-6.8,9.5-13.3,9.5c-6.9,0-10.8-4.6-8.9-13.6c1.9-9,8.1-13.6,14.8-13.6c7.7,0,9.7,5.3,9.2,9.1H90.5"/>
		</defs>
		<clipPath id="SVGID_30_">
			<use xlink:href="#SVGID_29_"  style="overflow:visible;"/>
		</clipPath>
		<rect x="66.4" y="10.3" class="st8" width="34.6" height="37.2"/>
	</g>
	<g>
		<defs>
			<polyline id="SVGID_31_" points="119.6,20.6 105.9,20.6 104.7,26 117.3,26 116.3,30.6 103.7,30.6 102.3,37.3 116.6,37.3 
				115.7,41.9 96,41.9 101.5,16 120.5,16 119.6,20.6 			"/>
		</defs>
		<clipPath id="SVGID_32_">
			<use xlink:href="#SVGID_31_"  style="overflow:visible;"/>
		</clipPath>
		<rect x="91" y="11" class="st11" width="34.5" height="35.9"/>
	</g>
</g>
</svg>
