<?xml version="1.0" encoding="UTF-8"?>
<svg width="23px" height="20px" viewBox="0 0 23 20" version="1.1" xmlns="http://www.w3.org/2000/svg" xmlns:xlink="http://www.w3.org/1999/xlink">
    <!-- Generator: Sketch 49 (51002) - http://www.bohemiancoding.com/sketch -->
    <title>ideal</title>
    <desc>Created with Sketch.</desc>
    <defs></defs>
    <g id="Zoeken-3.0" stroke="none" stroke-width="1" fill="none" fill-rule="evenodd">
        <g id="VD-Homepage-boeker-met-Betaal-iconen_Desktop" transform="translate(-1143.000000, -827.000000)" fill-rule="nonzero">
            <g id="Zoek-balk---passagiers---1200" transform="translate(134.000000, 470.000000)">
                <g id="Group-2" transform="translate(0.000000, 335.000000)">
                    <g id="Betaalopties" transform="translate(1009.000000, 22.000000)">
                        <g id="ideal">
                            <path d="M13.0755944,0 L0,0 L0,19.8297631 L13.0755944,19.8297631 L13.0755944,19.8260075 C15.9317314,19.7870521 18.1945242,19.0775587 19.8002307,17.7113545 C21.7529167,16.0499974 22.7430187,13.4267051 22.7430187,9.91481324 C22.7430187,8.23594165 22.4825195,6.7301672 21.9689979,5.43910832 C21.4776684,4.20404142 20.7513432,3.15395288 19.8107463,2.31803365 C18.1542373,0.845683682 15.8285901,0.0495392419 13.0755944,0.00433596397 C13.0755944,0.00430182253 13.0755944,0 13.0755944,0 Z" id="Shape" fill="#FFFFFF"></path>
                            <rect id="Rectangle-path" fill="#000000" x="3.34773974" y="11.0461243" width="3.30663344" height="5.49055948"></rect>
                            <path d="M6.9040496,8.30101525 C6.9040496,9.33464761 6.06597946,10.1731274 5.03231296,10.1731274 C3.9986806,10.1731274 3.16057632,9.33464761 3.16057632,8.30101525 C3.16057632,7.26734875 3.9986806,6.42924447 5.03231296,6.42924447 C6.06597946,6.42924447 6.9040496,7.26734875 6.9040496,8.30101525 Z" id="Shape" fill="#000000"></path>
                            <path d="M12.9176561,0.918985372 L1.05408308,0.918985372 L1.05408308,18.9107094 L12.9176902,18.9107094 L12.9176902,18.9072953 C15.5091286,18.871993 17.5620539,18.2282218 19.0189037,16.9887507 C20.7907083,15.4813716 21.6890381,13.1013371 21.6890381,9.91484739 C21.6890381,8.3916608 21.4527451,7.02542245 20.9867485,5.85406349 C20.5409294,4.733507 19.882136,3.7807216 19.028634,3.02223517 C17.5254543,1.68634857 15.4154103,0.964017943 12.9176902,0.922979922 C12.9176561,0.922911639 12.9176561,0.918985372 12.9176561,0.918985372 Z M12.6931761,2.11393607 C14.9924319,2.11393607 16.908689,2.73688095 18.2348111,3.91544375 C19.733928,5.24771136 20.4940532,7.26622209 20.4940532,9.91484739 C20.4940532,15.164061 17.9423555,17.7157587 12.6931761,17.7157587 C12.285254,17.7157587 3.2980298,17.7157587 2.24899964,17.7157587 C2.24899964,16.6452877 2.24899964,3.18440705 2.24899964,2.11393607 C3.2980298,2.11393607 12.285254,2.11393607 12.6931761,2.11393607 Z" id="Shape" fill="#000000"></path>
                            <path d="M12.3668179,16.5427951 L8.17257512,16.5427951 L8.17257512,3.56866906 L12.3668179,3.56866906 L12.1975446,3.56866906 C15.6954043,3.56866906 19.4186317,4.94914439 19.4186317,10.0727857 C19.4186317,15.489429 15.6954043,16.5427951 12.1975446,16.5427951 L12.3668179,16.5427951 Z" id="Shape" fill="#CD0067"></path>
                            <g id="Group" transform="translate(7.340411, 6.828290)" fill="#FFFFFF">
                                <g id="Shape">
                                    <path d="M0.109218494,0.0895188783 L1.26077541,0.0895188783 C1.52045527,0.0895188783 1.71844153,0.109389201 1.85470005,0.149129848 C2.03773236,0.203073336 2.19454403,0.298942524 2.32510093,0.436634986 C2.45565783,0.574327449 2.55497531,0.742952063 2.62312164,0.942372265 C2.69126797,1.14179247 2.72530699,1.3877816 2.72530699,1.68020311 C2.72530699,1.93715165 2.6933506,2.15862723 2.62950609,2.3445957 C2.55145874,2.57173876 2.44005519,2.75559046 2.29532959,2.89611666 C2.18604281,3.00260384 2.03848347,3.08566998 1.85254914,3.14528095 C1.71345688,3.18928928 1.52755669,3.21131052 1.29484858,3.21131052 L0.109184353,3.21131052 L0.109184353,0.0895188783 L0.109218494,0.0895188783 Z M0.738718524,0.618711332 L0.738718524,2.6821522 L1.21028021,2.6821522 C1.38665494,2.6821522 1.51400254,2.67225118 1.59225474,2.652415 C1.69467909,2.62691134 1.77965715,2.58368827 1.84725722,2.52277992 C1.91482315,2.46187158 1.96996159,2.36163228 2.0126384,2.22206204 C2.05531521,2.08252594 2.07665361,1.89235807 2.07665361,1.65149015 C2.07665361,1.41065637 2.05531521,1.22578043 2.0126384,1.09686232 C1.96996159,0.967978351 1.91021405,0.867363502 1.83339579,0.795120197 C1.75657753,0.722876892 1.65913784,0.673986337 1.54107671,0.648448534 C1.4528552,0.628646493 1.28003119,0.618711332 1.02253639,0.618711332 L0.738718524,0.618711332 Z"></path>
                                    <path d="M0.0238648726,0.00416525673 L0.0238648726,3.29669828 L1.29488272,3.29669828 C1.53523852,3.29669828 1.73155185,3.27314068 1.87832594,3.22670831 C2.07634634,3.16323936 2.2366063,3.07262795 2.35490642,2.95729814 C2.50857708,2.80810001 2.62814043,2.61127456 2.71025062,2.37238684 C2.77689472,2.1782927 2.81066062,1.94541388 2.81066062,1.68027139 C2.81066062,1.37982665 2.77474381,1.1222977 2.70390031,0.914854257 C2.63210084,0.704577075 2.5254771,0.523968812 2.38706766,0.377945836 C2.24660974,0.229806091 2.07562937,0.125299116 1.87883806,0.0672927952 C1.73322478,0.0248208331 1.53114155,0.00419939818 1.26080956,0.00419939818 L0.0238648726,0.00419939818 L0.0238648726,0.00416525673 Z M1.26080956,0.1748725 C1.51120294,0.1748725 1.70297546,0.193786862 1.83080104,0.231069324 C1.99812828,0.280369576 2.14367328,0.369342191 2.26320249,0.495358278 C2.38460948,0.623422852 2.4785326,0.783102407 2.54237711,0.969958555 C2.60714344,1.1596143 2.63998751,1.3985703 2.63998751,1.68020311 C2.63998751,1.92646538 2.60932849,2.14066883 2.54882985,2.31687284 C2.4755623,2.53015447 2.37027007,2.70444657 2.23592347,2.83490104 C2.13657185,2.93169205 1.99887939,3.0087493 1.8265675,3.06402431 C1.69676171,3.10509647 1.51779224,3.12595689 1.29491686,3.12595689 C1.29491686,3.12595689 0.341653476,3.12595689 0.194606257,3.12595689 C0.194606257,2.96900865 0.194606257,0.331820739 0.194606257,0.174838358 C0.340902364,0.1748725 1.26080956,0.1748725 1.26080956,0.1748725 Z"></path>
                                    <path d="M0.653364902,0.53335771 L0.653364902,2.76750583 L1.21028021,2.76750583 C1.39553171,2.76750583 1.5273177,2.75692198 1.61321759,2.73513973 C1.72851326,2.70642677 1.82660164,2.65627299 1.90437586,2.58618059 C1.98440342,2.51400557 2.04650671,2.40308 2.09423646,2.24701944 C2.13981529,2.09799202 2.16197309,1.90318091 2.16197309,1.65149015 C2.16197309,1.39915071 2.13961044,1.20898284 2.09365605,1.07002714 C2.04667742,0.928101139 1.97877008,0.814683247 1.89184595,0.732948619 C1.80393172,0.65025803 1.69198191,0.593788074 1.55906925,0.565040975 C1.46436087,0.543770852 1.28863484,0.53335771 1.02250224,0.53335771 L0.653364902,0.53335771 Z M1.02250224,0.704064953 C1.33373569,0.704064953 1.46610209,0.719121332 1.52233305,0.731753668 C1.6251671,0.753979751 1.70990617,0.796178582 1.77487735,0.857325916 C1.84087277,0.91939507 1.89362131,1.00901637 1.9315866,1.1236975 C1.97119068,1.24336328 1.99126585,1.42093295 1.99126585,1.65149015 C1.99126585,1.88273018 1.97098583,2.06630875 1.93097205,2.19710464 C1.89310918,2.32096982 1.84568671,2.40922546 1.79007029,2.45937925 C1.7333272,2.51052314 1.65982067,2.54760075 1.5716333,2.56958785 C1.50027768,2.58768282 1.37883654,2.59679858 1.21031435,2.59679858 C1.21031435,2.59679858 0.938616705,2.59679858 0.824106287,2.59679858 C0.824106287,2.44671277 0.824106287,0.854184903 0.824106287,0.704064953 C0.907547987,0.704064953 1.02250224,0.704064953 1.02250224,0.704064953 Z"></path>
                                </g>
                                <g transform="translate(3.345862, 0.000000)" id="Shape">
                                    <polygon points="0.091703931 3.21131052 0.091703931 0.0894847368 2.40267031 0.0894847368 2.40267031 0.61867719 0.721203961 0.61867719 0.721203961 1.31004152 2.285292 1.31004152 2.285292 1.83923398 0.721203961 1.83923398 0.721203961 2.68211806 2.46241784 2.68211806 2.46241784 3.21131052"></polygon>
                                    <path d="M0.00635030944,0.00416525673 L0.00635030944,3.29669828 L2.54777146,3.29669828 L2.54777146,2.59679858 C2.54777146,2.59679858 0.960911071,2.59679858 0.806557582,2.59679858 C0.806557582,2.47446977 0.806557582,2.04698469 0.806557582,1.92462174 C0.959135716,1.92462174 2.37064563,1.92462174 2.37064563,1.92462174 L2.37064563,1.22472204 C2.37064563,1.22472204 0.959101575,1.22472204 0.806557582,1.22472204 C0.806557582,1.11205526 0.806557582,0.816731734 0.806557582,0.704064953 C0.960364808,0.704064953 2.48802393,0.704064953 2.48802393,0.704064953 L2.48802393,0.00416525673 L0.00635030944,0.00416525673 Z M2.31728254,0.1748725 C2.31728254,0.271868355 2.31728254,0.436361855 2.31728254,0.53335771 C2.16347532,0.53335771 0.635816198,0.53335771 0.635816198,0.53335771 L0.635816198,1.39542929 C0.635816198,1.39542929 2.04736025,1.39542929 2.19990424,1.39542929 C2.19990424,1.49242514 2.19990424,1.65691864 2.19990424,1.7539145 C2.04732611,1.7539145 0.635816198,1.7539145 0.635816198,1.7539145 L0.635816198,2.76750583 C0.635816198,2.76750583 2.22267659,2.76750583 2.37703008,2.76750583 C2.37703008,2.86450168 2.37703008,3.02899518 2.37703008,3.12599104 C2.22431538,3.12599104 0.329738111,3.12599104 0.177023411,3.12599104 C0.177023411,2.9690428 0.177023411,0.331854881 0.177023411,0.1748725 C0.329328413,0.1748725 2.16501168,0.1748725 2.31728254,0.1748725 Z"></path>
                                </g>
                                <g transform="translate(6.043036, 0.000000)" id="Shape">
                                    <path d="M3.29038211,3.21131052 L2.60461697,3.21131052 L2.33220236,2.50287546 L1.08501524,2.50287546 L0.826666895,3.21131052 L0.1579042,3.21131052 L1.37101815,0.0894847368 L2.04193176,0.0894847368 L3.29038211,3.21131052 Z M2.12994841,1.973683 L1.6996296,0.817141431 L1.27794856,1.973683 L2.12994841,1.973683 Z"></path>
                                    <path d="M1.31260213,0.00416525673 L0.0331513466,3.29669828 L0.886346148,3.29669828 C0.886346148,3.29669828 1.11004092,2.68341544 1.14469449,2.58826322 C1.2476651,2.58826322 2.17242038,2.58826322 2.27354735,2.58826322 C2.30936173,2.68143523 2.54596196,3.29669828 2.54596196,3.29669828 L3.4163982,3.29669828 L2.09969909,0.00416525673 L1.31260213,0.00416525673 Z M1.98416443,0.1748725 C2.02404164,0.27456553 3.07911483,2.91298254 3.16429774,3.12599104 C3.01397294,3.12599104 2.74155832,3.12599104 2.6632037,3.12599104 C2.62738932,3.03281902 2.39078908,2.41755598 2.39078908,2.41755598 L1.0252677,2.41755598 C1.0252677,2.41755598 0.801572931,3.03083882 0.76691936,3.12599104 C0.688120897,3.12599104 0.429567707,3.12599104 0.28258877,3.12599104 C0.36483552,2.9143482 1.39006908,0.275999471 1.42940003,0.1748725 C1.51758739,0.1748725 1.8968306,0.1748725 1.98416443,0.1748725 Z"></path>
                                    <path d="M1.15596117,2.05903662 L2.2527552,2.05903662 L1.69877606,0.570196333 L1.15596117,2.05903662 Z M1.70041485,1.06408653 C1.79396242,1.31550416 1.95213975,1.74056519 2.00710748,1.88832938 C1.85726066,1.88832938 1.54886096,1.88832938 1.39990182,1.88832938 C1.45353803,1.74117974 1.60857435,1.31598214 1.70041485,1.06408653 Z"></path>
                                </g>
                                <g transform="translate(9.764454, 0.000000)" id="Shape">
                                    <polygon points="0.0955619147 3.21131052 0.0955619147 0.115090823 0.725061944 0.115090823 0.725061944 2.68211806 2.29345181 2.68211806 2.29345181 3.21131052"></polygon>
                                    <path d="M0.0102082931,0.0297713432 L0.0102082931,3.29669828 L2.37877129,3.29669828 L2.37877129,2.59679858 C2.37877129,2.59679858 0.963027841,2.59679858 0.810381424,2.59679858 C0.810381424,2.43725559 0.810381424,0.0297713432 0.810381424,0.0297713432 L0.0102082931,0.0297713432 Z M0.639674181,0.200478586 C0.639674181,0.360021576 0.639674181,2.76750583 0.639674181,2.76750583 C0.639674181,2.76750583 2.05541763,2.76750583 2.20806405,2.76750583 C2.20806405,2.86450168 2.20806405,3.02899518 2.20806405,3.12599104 C2.05671501,3.12599104 0.332264578,3.12599104 0.180915536,3.12599104 C0.180915536,2.96914522 0.180915536,0.357358543 0.180915536,0.200478586 C0.288461099,0.200478586 0.532128618,0.200478586 0.639674181,0.200478586 Z"></path>
                                </g>
                            </g>
                        </g>
                    </g>
                </g>
            </g>
        </g>
    </g>
</svg>