<?xml version="1.0" encoding="utf-8"?>
<!-- Generator: Adobe Illustrator 16.0.0, SVG Export Plug-In . SVG Version: 6.00 Build 0)  -->
<!DOCTYPE svg PUBLIC "-//W3C//DTD SVG 1.1//EN" "http://www.w3.org/Graphics/SVG/1.1/DTD/svg11.dtd">
<svg version="1.1" id="Berlijn" xmlns="http://www.w3.org/2000/svg" xmlns:xlink="http://www.w3.org/1999/xlink" x="0px" y="0px"
	 width="260px" height="80px" viewBox="0 0 260 80" style="enable-background:new 0 0 260 80;" xml:space="preserve">
<style type="text/css">
<![CDATA[
	.st0{clip-path:url(#SVGID_22_);fill:#123A72;}
	.st1{clip-path:url(#SVGID_12_);fill:#123A72;}
	.st2{clip-path:url(#SVGID_24_);fill:#123A72;}
	.st3{clip-path:url(#SVGID_2_);fill:#123A72;}
	.st4{clip-path:url(#SVGID_14_);fill:#123A72;}
	.st5{clip-path:url(#SVGID_26_);fill:#123A72;}
	.st6{clip-path:url(#SVGID_4_);fill:#123A72;}
	.st7{clip-path:url(#SVGID_16_);fill:#123A72;}
	.st8{clip-path:url(#SVGID_28_);fill:#123A72;}
	.st9{clip-path:url(#SVGID_6_);fill:#123A72;}
	.st10{clip-path:url(#SVGID_18_);fill:#123A72;}
	.st11{clip-path:url(#SVGID_8_);fill:#123A72;}
	.st12{clip-path:url(#SVGID_30_);fill:#123A72;}
	.st13{clip-path:url(#SVGID_20_);fill:#123A72;}
	.st14{clip-path:url(#SVGID_10_);fill:#123A72;}
	.st15{clip-path:url(#SVGID_32_);fill:#123A72;}
]]>
</style>
<g>
	<g>
		<defs>
			<rect id="SVGID_1_" x="39.3" y="28.9" width="3.6" height="17.9"/>
		</defs>
		<clipPath id="SVGID_2_">
			<use xlink:href="#SVGID_1_"  style="overflow:visible;"/>
		</clipPath>
		<rect x="34.3" y="23.9" class="st3" width="13.6" height="27.9"/>
	</g>
	<g>
		<defs>
			<path id="SVGID_3_" d="M46.4,33.6h3.3v1.8h0.1c1.1-1.5,2.5-2.1,4.3-2.1c3.1,0,4.5,2.2,4.5,5.2v8.3h-3.4v-7c0-1.6,0-3.8-2.2-3.8
				c-2.5,0-3,2.7-3,4.4v6.5h-3.4V33.6"/>
		</defs>
		<clipPath id="SVGID_4_">
			<use xlink:href="#SVGID_3_"  style="overflow:visible;"/>
		</clipPath>
		<rect x="41.4" y="28.3" class="st6" width="22.1" height="23.5"/>
	</g>
	<g>
		<defs>
			<path id="SVGID_5_" d="M63.2,36.1h-2.5v-2.5h2.5v-2.6l3.4-1.1v3.7h3v2.5h-3v6.2c0,1.1,0.3,2.2,1.6,2.2c0.6,0,1.2-0.1,1.6-0.4
				l0.1,2.7c-0.7,0.2-1.5,0.3-2.5,0.3c-2.7,0-4.2-1.7-4.2-4.3V36.1"/>
		</defs>
		<clipPath id="SVGID_6_">
			<use xlink:href="#SVGID_5_"  style="overflow:visible;"/>
		</clipPath>
		<rect x="55.7" y="24.8" class="st9" width="19.3" height="27.2"/>
	</g>
	<g>
		<defs>
			<path id="SVGID_7_" d="M82.7,46c-1.3,0.7-2.7,1.1-4.5,1.1c-4.4,0-6.9-2.5-6.9-6.8c0-3.8,2-7,6.1-7c4.9,0,6.3,3.4,6.3,8h-9.1
				c0.2,2.1,1.6,3.3,3.8,3.3c1.7,0,3.1-0.6,4.4-1.3V46z M80.3,38.9c-0.1-1.7-0.9-3.1-2.8-3.1c-1.9,0-2.9,1.3-3,3.1H80.3z"/>
		</defs>
		<clipPath id="SVGID_8_">
			<use xlink:href="#SVGID_7_"  style="overflow:visible;"/>
		</clipPath>
		<rect x="66.2" y="28.3" class="st11" width="22.4" height="23.8"/>
	</g>
	<g>
		<defs>
			<path id="SVGID_9_" d="M86.4,33.6h3v3h0.1c0.2-1.2,1.6-3.3,3.6-3.3c0.3,0,0.7,0,1.1,0.1v3.5c-0.3-0.2-0.9-0.3-1.5-0.3
				c-2.8,0-2.8,3.5-2.8,5.4v4.8h-3.4V33.6"/>
		</defs>
		<clipPath id="SVGID_10_">
			<use xlink:href="#SVGID_9_"  style="overflow:visible;"/>
		</clipPath>
		<rect x="81.4" y="28.3" class="st14" width="17.8" height="23.5"/>
	</g>
	<g>
		<defs>
			<path id="SVGID_11_" d="M104.4,36.4c-0.6-0.3-1.3-0.5-2.3-0.5c-2.1,0-3.5,1.7-3.5,4.2c0,2.4,1.2,4.3,3.6,4.3c1,0,2.1-0.4,2.6-0.6
				l0.2,2.8c-1,0.3-2,0.4-3.4,0.4c-4.3,0-6.5-2.9-6.5-7c0-3.8,2.3-6.8,6.4-6.8c1.4,0,2.4,0.2,3.3,0.4L104.4,36.4"/>
		</defs>
		<clipPath id="SVGID_12_">
			<use xlink:href="#SVGID_11_"  style="overflow:visible;"/>
		</clipPath>
		<rect x="90" y="28.3" class="st1" width="19.9" height="23.8"/>
	</g>
	<g>
		<defs>
			<path id="SVGID_13_" d="M107.3,27.9h3.4v3.3h-3.4V27.9z M107.3,33.6h3.4v13.2h-3.4V33.6z"/>
		</defs>
		<clipPath id="SVGID_14_">
			<use xlink:href="#SVGID_13_"  style="overflow:visible;"/>
		</clipPath>
		<rect x="102.3" y="22.9" class="st4" width="13.4" height="28.9"/>
	</g>
	<g>
		<defs>
			<path id="SVGID_15_" d="M115.5,36.1h-2.5v-2.5h2.5v-2.6l3.4-1.1v3.7h3v2.5h-3v6.2c0,1.1,0.3,2.2,1.6,2.2c0.6,0,1.2-0.1,1.6-0.4
				l0.1,2.7c-0.7,0.2-1.5,0.3-2.5,0.3c-2.7,0-4.2-1.7-4.2-4.3V36.1"/>
		</defs>
		<clipPath id="SVGID_16_">
			<use xlink:href="#SVGID_15_"  style="overflow:visible;"/>
		</clipPath>
		<rect x="107.9" y="24.8" class="st7" width="19.3" height="27.2"/>
	</g>
	<g>
		<defs>
			<path id="SVGID_17_" d="M129.8,43.2L129.8,43.2l3.2-9.6h3.5l-4.9,13.1c-1.1,2.9-1.9,5.8-5.5,5.8c-0.8,0-1.6-0.1-2.4-0.4l0.2-2.5
				c0.4,0.2,0.9,0.2,1.8,0.2c1.4,0,2.2-0.9,2.2-2.4l-5-13.9h3.8L129.8,43.2"/>
		</defs>
		<clipPath id="SVGID_18_">
			<use xlink:href="#SVGID_17_"  style="overflow:visible;"/>
		</clipPath>
		<rect x="117.8" y="28.6" class="st10" width="23.7" height="28.9"/>
	</g>
	<g>
		<defs>
			<path id="SVGID_19_" d="M146,28.9h6.3c2.3,0,5.8,0.7,5.8,4.6c0,2.1-1.4,3.6-3.6,4v0.1c2.4,0.2,4.1,1.9,4.1,4.1
				c0,4.5-4,5.2-6.3,5.2H146V28.9z M149.6,36.1h1.5c1.5,0,3.4-0.3,3.4-2.2c0-2.1-1.8-2.2-3.5-2.2h-1.4V36.1z M149.6,44h1.7
				c1.7,0,3.7-0.4,3.7-2.5c0-2.3-1.9-2.7-3.7-2.7h-1.7V44z"/>
		</defs>
		<clipPath id="SVGID_20_">
			<use xlink:href="#SVGID_19_"  style="overflow:visible;"/>
		</clipPath>
		<rect x="141" y="23.9" class="st13" width="22.6" height="27.9"/>
	</g>
	<g>
		<defs>
			<path id="SVGID_21_" d="M171.9,46c-1.3,0.7-2.7,1.1-4.5,1.1c-4.4,0-6.9-2.5-6.9-6.8c0-3.8,2-7,6.1-7c4.9,0,6.3,3.4,6.3,8h-9.1
				c0.2,2.1,1.6,3.3,3.8,3.3c1.7,0,3.1-0.6,4.4-1.3V46z M169.6,38.9c-0.1-1.7-0.9-3.1-2.8-3.1c-1.9,0-2.9,1.3-3.1,3.1H169.6z"/>
		</defs>
		<clipPath id="SVGID_22_">
			<use xlink:href="#SVGID_21_"  style="overflow:visible;"/>
		</clipPath>
		<rect x="155.5" y="28.3" class="st0" width="22.4" height="23.8"/>
	</g>
	<g>
		<defs>
			<path id="SVGID_23_" d="M175.6,33.6h3v3h0.1c0.2-1.2,1.6-3.3,3.6-3.3c0.3,0,0.7,0,1.1,0.1v3.5c-0.3-0.2-0.9-0.3-1.5-0.3
				c-2.8,0-2.8,3.5-2.8,5.4v4.8h-3.4V33.6"/>
		</defs>
		<clipPath id="SVGID_24_">
			<use xlink:href="#SVGID_23_"  style="overflow:visible;"/>
		</clipPath>
		<rect x="170.6" y="28.3" class="st2" width="17.8" height="23.5"/>
	</g>
	<g>
		<defs>
			<rect id="SVGID_25_" x="185.6" y="27.6" width="3.4" height="19.2"/>
		</defs>
		<clipPath id="SVGID_26_">
			<use xlink:href="#SVGID_25_"  style="overflow:visible;"/>
		</clipPath>
		<rect x="180.6" y="22.6" class="st5" width="13.4" height="29.2"/>
	</g>
	<g>
		<defs>
			<path id="SVGID_27_" d="M192.7,27.9h3.4v3.3h-3.4V27.9z M192.7,33.6h3.4v13.2h-3.4V33.6z"/>
		</defs>
		<clipPath id="SVGID_28_">
			<use xlink:href="#SVGID_27_"  style="overflow:visible;"/>
		</clipPath>
		<rect x="187.7" y="22.9" class="st8" width="13.4" height="28.9"/>
	</g>
	<g>
		<defs>
			<path id="SVGID_29_" d="M197.8,49.8c1.8-0.1,2.1-0.5,2.1-2.5V33.6h3.4v14.2c0,1.9-0.5,4.7-4,4.7c-0.6,0-1.3-0.1-1.7-0.2
				L197.8,49.8z M199.9,27.9h3.4v3.3h-3.4V27.9z"/>
		</defs>
		<clipPath id="SVGID_30_">
			<use xlink:href="#SVGID_29_"  style="overflow:visible;"/>
		</clipPath>
		<rect x="192.6" y="22.9" class="st12" width="15.7" height="34.6"/>
	</g>
	<g>
		<defs>
			<path id="SVGID_31_" d="M206.9,33.6h3.3v1.8h0.1c1.1-1.5,2.5-2.1,4.3-2.1c3.1,0,4.5,2.2,4.5,5.2v8.3h-3.4v-7c0-1.6,0-3.8-2.2-3.8
				c-2.5,0-3,2.7-3,4.4v6.5h-3.4V33.6"/>
		</defs>
		<clipPath id="SVGID_32_">
			<use xlink:href="#SVGID_31_"  style="overflow:visible;"/>
		</clipPath>
		<rect x="201.9" y="28.3" class="st15" width="22.1" height="23.5"/>
	</g>
</g>
</svg>
