<?xml version="1.0" encoding="UTF-8"?>
<svg width="610px" height="187px" viewBox="0 0 610 187" version="1.1" xmlns="http://www.w3.org/2000/svg" xmlns:xlink="http://www.w3.org/1999/xlink">
    <!-- Generator: Sketch 43.2 (39069) - http://www.bohemiancoding.com/sketch -->
    <title>Thuiswinkel_Waarborg_Kleur_Horizontaal_RGB</title>
    <desc>Created with Sketch.</desc>
    <defs>
        <polygon id="path-1" points="264.2245 188 0.06 188 0.06 0.972 264.2245 0.972 528.389 0.972 528.389 188 264.2245 188"></polygon>
    </defs>
    <g id="Page-1" stroke="none" stroke-width="1" fill="none" fill-rule="evenodd">
        <g id="Thuiswinkel_Waarborg_Kleur_Horizontaal_RGB" transform="translate(0.000000, -1.000000)">
            <path d="M250.786,66.205 L260.307,66.205 L260.307,73.906 L267.168,73.906 L267.168,81.746 L260.307,81.746 L260.307,95.888 C260.307,101.348 261.987,102.468 265.698,102.468 C266.328,102.468 266.677,102.468 267.448,102.399 L267.448,110.66 C267.448,110.66 265.977,111.009 263.317,111.009 C254.566,111.009 250.715,106.109 250.715,96.168 L250.715,81.746 L246.866,81.746 L246.866,73.906 L250.786,73.906 L250.786,66.205" id="Fill-1" fill="#1E1E1E"></path>
            <path d="M306.158,89.377 L306.158,110.519 L296.567,110.519 L296.567,88.257 C296.567,84.197 293.767,81.676 290.476,81.676 C286.416,81.676 283.826,84.617 283.826,88.537 L283.826,110.519 L274.165,110.519 L274.165,59.904 L283.826,59.904 L283.826,78.176 C285.366,75.656 288.726,72.995 293.487,72.995 C303.988,72.995 306.158,81.606 306.158,89.377" id="Fill-2" fill="#1E1E1E"></path>
            <path d="M314.275,95.048 L314.275,73.906 L323.936,73.906 L323.936,96.168 C323.936,100.228 326.736,102.748 330.027,102.748 C334.018,102.748 336.537,99.808 336.537,95.888 L336.537,73.906 L346.199,73.906 L346.199,110.519 L336.748,110.519 L336.748,106.249 C335.207,108.769 331.707,111.429 326.947,111.429 C316.515,111.429 314.275,102.819 314.275,95.048" id="Fill-3" fill="#1E1E1E"></path>
            <path d="M354.455,110.519 L364.115,110.519 L364.115,73.906 L354.455,73.906 L354.455,110.519 Z M359.215,59.554 C362.436,59.554 364.887,61.934 364.887,65.085 C364.887,68.235 362.436,70.615 359.215,70.615 C356.065,70.615 353.615,68.235 353.615,65.085 C353.615,61.934 356.065,59.554 359.215,59.554 L359.215,59.554 Z" id="Fill-4" fill="#1E1E1E"></path>
            <path d="M370.344,104.639 L376.016,99.598 C377.836,101.699 380.285,103.588 384.416,103.588 C387.147,103.588 388.897,102.399 388.897,100.298 C388.897,94.698 371.604,96.868 371.604,83.847 C371.604,77.056 377.414,72.995 384.906,72.995 C391.836,72.995 395.688,76.636 397.438,79.506 L391.067,84.267 C389.947,82.867 387.916,80.767 384.486,80.767 C382.246,80.767 380.705,81.887 380.705,83.706 C380.705,89.517 398.067,86.717 398.067,99.808 C398.067,106.949 391.906,111.429 383.996,111.429 C376.785,111.429 372.305,107.789 370.344,104.639" id="Fill-5" fill="#1E1E1E"></path>
            <polyline id="Fill-6" fill="#1E1E1E" points="429.498 87.067 422.707 110.519 411.926 110.519 401.004 73.906 411.506 73.906 417.945 99.878 424.947 73.906 434.047 73.906 440.979 99.878 447.488 73.906 457.99 73.906 446.998 110.519 436.219 110.519 429.498 87.067"></polyline>
            <path d="M463.233,110.519 L472.895,110.519 L472.895,73.906 L463.233,73.906 L463.233,110.519 Z M467.994,59.554 C471.213,59.554 473.664,61.934 473.664,65.085 C473.664,68.235 471.213,70.615 467.994,70.615 C464.844,70.615 462.393,68.235 462.393,65.085 C462.393,61.934 464.844,59.554 467.994,59.554 L467.994,59.554 Z" id="Fill-7" fill="#1E1E1E"></path>
            <path d="M513.496,89.377 L513.496,110.519 L503.836,110.519 L503.836,88.257 C503.836,84.197 501.035,81.676 497.744,81.676 C493.754,81.676 491.234,84.617 491.234,88.537 L491.234,110.519 L481.572,110.519 L481.572,73.906 L491.024,73.906 L491.024,78.176 C492.565,75.656 496.065,72.995 500.824,72.995 C511.256,72.995 513.496,81.606 513.496,89.377" id="Fill-8" fill="#1E1E1E"></path>
            <polyline id="Fill-9" fill="#1E1E1E" points="521.822 59.904 531.484 59.904 531.484 89.307 543.244 73.906 554.096 73.906 541.215 90.497 555.076 110.519 543.734 110.519 531.484 91.618 531.484 110.519 521.822 110.519 521.822 59.904"></polyline>
            <path d="M584.055,88.327 C583.846,83.847 580.625,80.906 576.215,80.906 C571.664,80.906 568.725,84.127 568.305,88.327 L584.055,88.327 Z M576.074,72.995 C587.416,72.995 593.856,80.556 593.856,92.528 C593.856,93.228 593.856,93.928 593.787,94.627 L568.024,94.627 C568.234,99.529 572.154,103.029 577.545,103.029 C582.516,103.029 585.385,100.088 586.436,98.548 L592.807,103.378 C591.406,105.969 586.506,111.429 577.404,111.429 C565.643,111.429 558.152,103.309 558.152,92.318 C558.152,81.256 565.643,72.995 576.074,72.995 L576.074,72.995 Z" id="Fill-10" fill="#1E1E1E"></path>
            <polygon id="Fill-11" fill="#1E1E1E" points="600.223 110.519 609.883 110.519 609.883 59.904 600.223 59.904"></polygon>
            <path d="M272.616,148.674 L263.581,175.52 L257.925,175.52 L246.55,141.718 L252.14,141.718 L260.981,169.539 C260.981,169.539 261.046,169.41 270.082,141.718 L275.151,141.718 C284.122,169.41 284.187,169.539 284.187,169.539 L293.092,141.718 L298.682,141.718 L287.242,175.52 L281.587,175.52 L272.616,148.674" id="Fill-12" fill="#1E1E1E"></path>
            <path d="M316.036,172.075 C320.977,172.075 324.42,169.15 324.42,165.054 C324.42,160.829 321.041,158.099 315.97,158.099 C310.836,158.099 307.52,161.089 307.52,165.054 C307.52,168.954 310.836,172.075 316.036,172.075 Z M315.321,154.004 C319.611,154.004 322.861,155.629 324.227,157.059 L324.227,152.899 C324.227,148.154 321.041,145.424 316.036,145.424 C311.876,145.424 308.496,146.919 306.09,148.349 L304.01,144.579 C306.285,143.149 310.77,140.873 316.491,140.873 C325.721,140.873 329.361,146.009 329.361,153.224 L329.361,175.52 L324.942,175.52 L324.356,172.66 C322.602,174.675 319.741,176.365 315.19,176.365 C307.78,176.365 302.32,171.685 302.32,165.12 C302.32,158.684 307.715,154.004 315.321,154.004 L315.321,154.004 Z" id="Fill-13" fill="#1E1E1E"></path>
            <path d="M350.096,172.075 C355.035,172.075 358.481,169.15 358.481,165.054 C358.481,160.829 355.1,158.099 350.029,158.099 C344.895,158.099 341.58,161.089 341.58,165.054 C341.58,168.954 344.895,172.075 350.096,172.075 Z M349.381,154.004 C353.67,154.004 356.92,155.629 358.285,157.059 L358.285,152.899 C358.285,148.154 355.1,145.424 350.096,145.424 C345.936,145.424 342.555,146.919 340.151,148.349 L338.07,144.579 C340.344,143.149 344.83,140.873 350.551,140.873 C359.781,140.873 363.42,146.009 363.42,153.224 L363.42,175.52 L359,175.52 L358.416,172.66 C356.66,174.675 353.801,176.365 349.25,176.365 C341.84,176.365 336.379,171.685 336.379,165.12 C336.379,158.684 341.776,154.004 349.381,154.004 L349.381,154.004 Z" id="Fill-14" fill="#1E1E1E"></path>
            <path d="M387.795,146.009 C380.059,146.009 377.785,152.119 377.785,159.334 L377.785,175.52 L372.649,175.52 L372.649,141.718 L377.719,141.718 L377.719,147.373 C378.889,143.994 382.66,140.873 387.795,140.873 L387.795,146.009" id="Fill-15" fill="#1E1E1E"></path>
            <path d="M410.869,171.749 C417.369,171.749 422.44,166.615 422.44,158.749 C422.44,151.014 417.629,145.554 411,145.554 C404.629,145.554 399.43,150.364 399.43,158.749 C399.43,165.834 403.85,171.749 410.869,171.749 Z M394.488,128.523 L399.625,128.523 L399.625,147.179 C400.664,145.424 404.5,140.873 411.584,140.873 C421.141,140.873 427.705,148.284 427.705,158.684 C427.705,169.02 420.815,176.365 411.195,176.365 C403.85,176.365 400.274,171.425 399.43,170.19 L399.43,175.52 L394.488,175.52 L394.488,128.523 L394.488,128.523 Z" id="Fill-16" fill="#1E1E1E"></path>
            <path d="M450.52,171.685 C457.801,171.685 463,166.16 463,158.62 C463,151.144 457.801,145.554 450.52,145.554 C443.24,145.554 438.17,151.209 438.17,158.62 C438.17,166.225 443.305,171.685 450.52,171.685 Z M450.586,140.873 C460.791,140.873 468.201,148.479 468.201,158.62 C468.201,168.759 460.66,176.365 450.52,176.365 C440.379,176.365 432.904,168.89 432.904,158.62 C432.904,148.413 440.51,140.873 450.586,140.873 L450.586,140.873 Z" id="Fill-17" fill="#1E1E1E"></path>
            <path d="M490.818,146.009 C483.084,146.009 480.809,152.119 480.809,159.334 L480.809,175.52 L475.674,175.52 L475.674,141.718 L480.744,141.718 L480.744,147.373 C481.914,143.994 485.684,140.873 490.818,140.873 L490.818,146.009" id="Fill-18" fill="#1E1E1E"></path>
            <g id="Group-22">
                <mask id="mask-2" fill="white">
                    <use xlink:href="#path-1"></use>
                </mask>
                <g id="Clip-20"></g>
                <path d="M511.879,145.554 C505.315,145.554 500.44,150.949 500.44,158.684 C500.44,166.549 505.508,171.685 512.01,171.685 C518.965,171.685 523.449,165.964 523.449,158.684 C523.449,150.494 518.315,145.554 511.879,145.554 Z M501.154,180.59 C502.453,181.37 506.484,183.385 511.359,183.385 C517.795,183.385 523.254,180.72 523.254,173.18 L523.254,170.19 C522.475,171.425 518.965,176.365 511.555,176.365 C501.869,176.365 495.238,169.02 495.238,158.684 C495.238,148.284 501.934,140.873 511.488,140.873 C518.51,140.873 522.344,145.359 523.449,147.179 L523.449,141.718 L528.389,141.718 L528.389,170.839 C528.389,183.645 521.174,188 511.424,188 C507.004,188 502.258,186.441 499.334,184.62 L501.154,180.59 L501.154,180.59 Z" id="Fill-19" fill="#1E1E1E" mask="url(#mask-2)"></path>
                <path d="M101.05,111.424 L16.187,62.428 L101.05,13.432 L185.914,62.428 L101.05,111.424 Z M95.655,165.485 L10.791,165.485 L10.791,71.774 L95.655,120.77 L95.655,165.485 Z M191.309,165.485 L106.446,165.485 L106.446,120.77 L191.309,71.774 L191.309,165.485 Z M101.05,0.972 L0,59.313 L0,176.276 L202.1,176.276 L202.1,59.313 L101.05,0.972 L101.05,0.972 Z" id="Fill-21" fill="#1E1E1E" mask="url(#mask-2)"></path>
            </g>
            <polyline id="Fill-23" fill="#BDEB18" points="191.309 71.774 106.446 120.77 106.446 165.485 191.309 165.485 191.309 71.774"></polyline>
            <polyline id="Fill-24" fill="#FC3F4D" points="10.791 165.485 95.655 165.485 95.655 120.77 10.791 71.774 10.791 165.485"></polyline>
            <polyline id="Fill-25" fill="#FFFFFF" points="16.187 62.428 101.05 111.424 185.914 62.428 101.05 13.432 16.187 62.428"></polyline>
        </g>
    </g>
</svg>