<?xml version="1.0" encoding="UTF-8"?>
<svg width="34px" height="20px" viewBox="0 0 34 20" version="1.1" xmlns="http://www.w3.org/2000/svg" xmlns:xlink="http://www.w3.org/1999/xlink">
    <!-- Generator: Sketch 49 (51002) - http://www.bohemiancoding.com/sketch -->
    <title>master-card</title>
    <desc>Created with Sketch.</desc>
    <defs></defs>
    <g id="Zoeken-3.0" stroke="none" stroke-width="1" fill="none" fill-rule="evenodd">
        <g id="VD-Homepage-boeker-met-Betaal-iconen_Desktop" transform="translate(-1175.000000, -827.000000)" fill-rule="nonzero">
            <g id="Zoek-balk---passagiers---1200" transform="translate(134.000000, 470.000000)">
                <g id="Group-2" transform="translate(0.000000, 335.000000)">
                    <g id="Betaalopties" transform="translate(1009.000000, 22.000000)">
                        <g id="master-card" transform="translate(32.000000, 0.000000)">
                            <g id="Group">
                                <circle id="Oval" fill="#E30613" cx="9.90367816" cy="9.90390805" r="9.90367816"></circle>
                                <path d="M23.1995402,0 C20.6406897,0 18.3089655,0.970804598 16.5512644,2.56367816 C16.1933333,2.88827586 15.8590805,3.23908046 15.5512644,3.61195402 L17.551954,3.61195402 C17.8255172,3.9445977 18.0774713,4.29448276 18.3068966,4.66068966 L14.7965517,4.66068966 C14.5862069,4.99770115 14.3951724,5.34735632 14.225977,5.70942529 L18.8777011,5.70942529 C19.0363218,6.0491954 19.1767816,6.39885057 19.2970115,6.75793103 L13.8064368,6.75793103 C13.691954,7.09954023 13.5956322,7.44942529 13.5186207,7.80666667 L19.5845977,7.80666667 C19.7301149,8.48229885 19.8075862,9.18413793 19.8075862,9.90367816 C19.8075862,11.0034483 19.628046,12.0616092 19.2970115,13.0496552 L13.8064368,13.0496552 C13.9264368,13.4089655 14.0666667,13.7588506 14.2255172,14.0983908 L18.8774713,14.0983908 C18.7078161,14.4604598 18.5172414,14.8103448 18.3066667,15.1471264 L14.7963218,15.1471264 C15.0255172,15.5131034 15.277931,15.8632184 15.5512644,16.1954023 L17.5514943,16.1954023 C17.2441379,16.5689655 16.9096552,16.9197701 16.5512644,17.2441379 C18.3089655,18.8367816 20.6404598,19.8071264 23.1993103,19.8071264 C28.6689655,19.8071264 33.1032184,15.3733333 33.1032184,9.90344828 C33.1034483,4.43471264 28.6691954,0 23.1995402,0 Z" id="Shape" fill="#F7A600"></path>
                            </g>
                            <g id="Group" transform="translate(0.459770, 7.356322)">
                                <g fill="#000000" id="Shape">
                                    <path d="M7.13126437,3.63172414 C7.01862069,3.61862069 6.96873563,3.61517241 6.89126437,3.61517241 C6.28183908,3.61517241 5.97333333,3.82413793 5.97333333,4.23678161 C5.97333333,4.49126437 6.12390805,4.65333333 6.35885057,4.65333333 C6.79701149,4.65333333 7.11264368,4.23609195 7.13126437,3.63172414 Z M7.91310345,5.45218391 C7.76988506,5.45218391 7.02229885,5.45218391 7.02229885,5.45218391 L7.04275862,5.02873563 C6.77103448,5.36344828 6.40850575,5.52229885 5.91586207,5.52229885 C5.33310345,5.52229885 4.9337931,5.06735632 4.9337931,4.40643678 C4.9337931,3.41195402 5.62850575,2.83149425 6.82137931,2.83149425 C6.94321839,2.83149425 7.09954023,2.84275862 7.25954023,2.86321839 C7.29287356,2.72850575 7.3016092,2.6708046 7.3016092,2.5983908 C7.3016092,2.32758621 7.11448276,2.22666667 6.61195402,2.22666667 C6.08597701,2.22091954 5.65218391,2.35195402 5.47402299,2.41057471 C5.48528736,2.34275862 5.62298851,1.49172414 5.62298851,1.49172414 C6.15862069,1.33448276 6.51195402,1.27563218 6.90965517,1.27563218 C7.83310345,1.27563218 8.32206897,1.69011494 8.32114943,2.47356322 C8.32298851,2.68344828 8.28804598,2.94252874 8.23402299,3.28298851 C8.14091954,3.87471264 7.94068966,5.14321839 7.91310345,5.45218391 Z"></path>
                                    <polygon points="4.48390805 5.45218391 3.40850575 5.45218391 4.0245977 1.59034483 2.6491954 5.45218391 1.91678161 5.45218391 1.82597701 1.61241379 1.17862069 5.45218391 0.172183908 5.45218391 1.01287356 0.428735632 2.55908046 0.428735632 2.65264368 3.24045977 3.59586207 0.428735632 5.31517241 0.428735632"></polygon>
                                    <path d="M24.0687356,3.63172414 C23.9563218,3.61862069 23.9064368,3.61517241 23.8291954,3.61517241 C23.22,3.61517241 22.9114943,3.82413793 22.9114943,4.23678161 C22.9114943,4.49126437 23.0618391,4.65333333 23.2967816,4.65333333 C23.7347126,4.65333333 24.0505747,4.23609195 24.0687356,3.63172414 Z M24.8510345,5.45218391 C24.7075862,5.45218391 23.9602299,5.45218391 23.9602299,5.45218391 L23.9806897,5.02873563 C23.7087356,5.36344828 23.345977,5.52229885 22.854023,5.52229885 C22.2710345,5.52229885 21.871954,5.06735632 21.871954,4.40643678 C21.871954,3.41195402 22.5664368,2.83149425 23.7595402,2.83149425 C23.8813793,2.83149425 24.0374713,2.84275862 24.1972414,2.86321839 C24.2308046,2.72850575 24.2395402,2.6708046 24.2395402,2.5983908 C24.2395402,2.32758621 24.0524138,2.22666667 23.5501149,2.22666667 C23.0241379,2.22091954 22.5905747,2.35195402 22.411954,2.41057471 C22.4232184,2.34275862 22.5611494,1.49172414 22.5611494,1.49172414 C23.0970115,1.33448276 23.4501149,1.27563218 23.8475862,1.27563218 C24.7712644,1.27563218 25.2602299,1.69011494 25.2593103,2.47356322 C25.2611494,2.68344828 25.2264368,2.94252874 25.1721839,3.28298851 C25.0788506,3.87471264 24.8781609,5.14321839 24.8510345,5.45218391 Z"></path>
                                    <path d="M12.6914943,5.39034483 C12.3972414,5.48275862 12.1678161,5.52252874 11.9190805,5.52252874 C11.3694253,5.52252874 11.0696552,5.20666667 11.0696552,4.62528736 C11.0618391,4.44482759 11.1487356,3.96965517 11.2170115,3.53632184 C11.2790805,3.15471264 11.6832184,0.748505747 11.6832184,0.748505747 L12.7517241,0.748505747 L12.6268966,1.36666667 L13.2726437,1.36666667 L13.1266667,2.34850575 L12.4790805,2.34850575 C12.3549425,3.12551724 12.177931,4.09333333 12.176092,4.2216092 C12.176092,4.43218391 12.2885057,4.52390805 12.5443678,4.52390805 C12.6666667,4.52390805 12.7616092,4.51149425 12.8342529,4.48528736 L12.6914943,5.39034483 Z"></path>
                                    <path d="M15.9682759,5.35701149 C15.6011494,5.4691954 15.2468966,5.52367816 14.8714943,5.52252874 C13.6751724,5.52137931 13.0514943,4.89655172 13.0514943,3.7 C13.0514943,2.30344828 13.8445977,1.2754023 14.9218391,1.2754023 C15.8029885,1.2754023 16.3657471,1.85103448 16.3657471,2.7537931 C16.3657471,3.05356322 16.3268966,3.34574713 16.234023,3.75862069 L14.1057471,3.75862069 C14.0337931,4.35126437 14.4131034,4.59816092 15.0347126,4.59816092 C15.4170115,4.59816092 15.7622989,4.51931034 16.145977,4.34091954 L15.9682759,5.35701149 Z M15.3675862,2.93494253 C15.3735632,2.84988506 15.4809195,2.20574713 14.8703448,2.20574713 C14.5301149,2.20574713 14.2864368,2.46528736 14.1873563,2.93494253 L15.3675862,2.93494253 Z"></path>
                                    <path d="M8.55793103,2.65816092 C8.55793103,3.17494253 8.80873563,3.53126437 9.37678161,3.79885057 C9.81218391,4.00367816 9.87954023,4.06413793 9.87954023,4.24965517 C9.87954023,4.50436782 9.68758621,4.61931034 9.26206897,4.61931034 C8.94114943,4.61931034 8.64298851,4.5691954 8.29885057,4.45816092 C8.29885057,4.45816092 8.15770115,5.35862069 8.15103448,5.4016092 C8.39517241,5.45471264 8.61333333,5.50413793 9.26988506,5.52229885 C10.4043678,5.52229885 10.9282759,5.09034483 10.9282759,4.15701149 C10.9282759,3.59563218 10.7089655,3.2662069 10.1703448,3.01862069 C9.71954023,2.81172414 9.66758621,2.76551724 9.66758621,2.57471264 C9.66758621,2.3537931 9.8462069,2.24114943 10.1937931,2.24114943 C10.4048276,2.24114943 10.6931034,2.26367816 10.9662069,2.30252874 L11.1193103,1.35494253 C10.8409195,1.31103448 10.4188506,1.2754023 10.1731034,1.2754023 C8.97057471,1.2754023 8.55425287,1.90390805 8.55793103,2.65816092 Z"></path>
                                    <path d="M21.1972414,1.38275862 C21.4958621,1.38275862 21.7742529,1.46114943 22.157931,1.65448276 L22.334023,0.564137931 C22.1763218,0.502068966 21.6218391,0.13908046 21.1521839,0.13908046 C20.4326437,0.13908046 19.8245977,0.496321839 19.3965517,1.08528736 C18.7726437,0.878850575 18.516092,1.29632184 18.2016092,1.71264368 L17.9222989,1.77747126 C17.9434483,1.64045977 17.9625287,1.50436782 17.956092,1.36666667 L16.9685057,1.36666667 C16.8335632,2.63126437 16.5944828,3.91172414 16.4075862,5.17770115 L16.3588506,5.45218391 L17.4344828,5.45218391 C17.614023,4.28574713 17.7124138,3.53885057 17.7721839,3.03333333 L18.1774713,2.80827586 C18.237931,2.58321839 18.4273563,2.50712644 18.8071264,2.51632184 C18.7574713,2.78275862 18.7308046,3.06344828 18.7308046,3.35402299 C18.7308046,4.69034483 19.4521839,5.52275862 20.6096552,5.52275862 C20.9078161,5.52275862 21.1634483,5.48344828 21.5597701,5.37609195 L21.7487356,4.23103448 C21.3924138,4.40643678 21.1002299,4.48896552 20.8351724,4.48896552 C20.2101149,4.48896552 19.831954,4.02735632 19.831954,3.26505747 C19.831954,2.1583908 20.3944828,1.38275862 21.1972414,1.38275862 Z"></path>
                                    <path d="M30.3,0.428735632 L30.0616092,1.88 C29.7678161,1.49310345 29.451954,1.21310345 29.0347126,1.21310345 C28.4924138,1.21310345 27.9983908,1.62436782 27.6751724,2.22988506 C27.2250575,2.13655172 26.7597701,1.97793103 26.7597701,1.97793103 L26.7595402,1.98183908 C26.7956322,1.64321839 26.8103448,1.43701149 26.8071264,1.36666667 L25.8195402,1.36666667 C25.6848276,2.63126437 25.4457471,3.91172414 25.2590805,5.17770115 L25.2098851,5.45218391 L26.2852874,5.45218391 C26.4305747,4.50896552 26.5418391,3.72574713 26.6236782,3.1045977 C26.9912644,2.77264368 27.1749425,2.48298851 27.5464368,2.50229885 C27.382069,2.89977011 27.2857471,3.35770115 27.2857471,3.82735632 C27.2857471,4.84873563 27.8025287,5.52252874 28.583908,5.52252874 C28.977931,5.52252874 29.2802299,5.38666667 29.5751724,5.07172414 L29.5245977,5.45149425 L30.5416092,5.45149425 L31.3604598,0.428505747 L30.3,0.428505747 L30.3,0.428735632 Z M28.9556322,4.50804598 C28.5896552,4.50804598 28.4048276,4.23724138 28.4048276,3.70275862 C28.4048276,2.9 28.7510345,2.33034483 29.2386207,2.33034483 C29.608046,2.33034483 29.8082759,2.61195402 29.8082759,3.1308046 C29.808046,3.94068966 29.4563218,4.50804598 28.9556322,4.50804598 Z"></path>
                                </g>
                                <g transform="translate(0.459770, 0.000000)" fill="#FFFFFF" id="Shape">
                                    <polygon points="4.33356322 5.1537931 3.25816092 5.1537931 3.87448276 1.29264368 2.49908046 5.1537931 1.76643678 5.1537931 1.67563218 1.31448276 1.02850575 5.1537931 0.0220689655 5.1537931 0.862758621 0.130804598 2.40873563 0.130804598 2.45195402 3.24045977 3.49494253 0.130804598 5.16505747 0.130804598"></polygon>
                                    <path d="M6.98091954,3.33402299 C6.86827586,3.32091954 6.8183908,3.31747126 6.74114943,3.31747126 C6.13172414,3.31747126 5.82321839,3.52643678 5.82321839,3.93908046 C5.82321839,4.19310345 5.9737931,4.35563218 6.20850575,4.35563218 C6.64689655,4.35563218 6.96252874,3.9383908 6.98091954,3.33402299 Z M7.76298851,5.1537931 C7.61954023,5.1537931 6.87218391,5.1537931 6.87218391,5.1537931 L6.89264368,4.73103448 C6.62091954,5.06505747 6.25816092,5.2245977 5.76574713,5.2245977 C5.18298851,5.2245977 4.78367816,4.76965517 4.78367816,4.10873563 C4.78367816,3.1137931 5.47816092,2.5337931 6.67126437,2.5337931 C6.79310345,2.5337931 6.94942529,2.54505747 7.1091954,2.56551724 C7.14275862,2.4308046 7.15149425,2.37310345 7.15149425,2.30022989 C7.15149425,2.02942529 6.96436782,1.92896552 6.46206897,1.92896552 C5.93563218,1.92321839 5.50229885,2.05425287 5.32367816,2.11218391 C5.33494253,2.0445977 5.47264368,1.19425287 5.47264368,1.19425287 C6.00827586,1.03655172 6.36206897,0.977701149 6.75931034,0.977701149 C7.68275862,0.977701149 8.17195402,1.39241379 8.17103448,2.17517241 C8.17264368,2.38597701 8.13770115,2.64482759 8.08367816,2.98482759 C7.99057471,3.57632184 7.79011494,4.84551724 7.76298851,5.1537931 Z"></path>
                                    <path d="M22.183908,0.266206897 L22.0078161,1.35655172 C21.6241379,1.16367816 21.3455172,1.08505747 21.0471264,1.08505747 C20.2443678,1.08505747 19.6818391,1.86068966 19.6818391,2.96712644 C19.6818391,3.72942529 20.0602299,4.19057471 20.6848276,4.19057471 C20.9496552,4.19057471 21.242069,4.10850575 21.5983908,3.93264368 L21.4096552,5.07747126 C21.0133333,5.18551724 20.7577011,5.22482759 20.4593103,5.22482759 C19.302069,5.22482759 18.5806897,4.39264368 18.5806897,3.05609195 C18.5806897,1.26022989 19.5770115,0.00505747126 21.002069,0.00505747126 C21.4714943,0.00505747126 22.025977,0.204137931 22.183908,0.266206897 Z"></path>
                                    <path d="M23.9183908,3.33402299 C23.8057471,3.32091954 23.756092,3.31747126 23.6786207,3.31747126 C23.0694253,3.31747126 22.7609195,3.52643678 22.7609195,3.93908046 C22.7609195,4.19310345 22.9114943,4.35563218 23.1462069,4.35563218 C23.5841379,4.35563218 23.9,3.9383908 23.9183908,3.33402299 Z M24.7009195,5.1537931 C24.5574713,5.1537931 23.8098851,5.1537931 23.8098851,5.1537931 L23.8303448,4.73103448 C23.5583908,5.06505747 23.1958621,5.2245977 22.7036782,5.2245977 C22.1209195,5.2245977 21.7216092,4.76965517 21.7216092,4.10873563 C21.7216092,3.1137931 22.4163218,2.5337931 23.6091954,2.5337931 C23.7310345,2.5337931 23.8873563,2.54505747 24.0471264,2.56551724 C24.0804598,2.4308046 24.0894253,2.37310345 24.0894253,2.30022989 C24.0894253,2.02942529 23.9022989,1.92896552 23.4,1.92896552 C22.874023,1.92321839 22.4402299,2.05425287 22.2618391,2.11218391 C22.2731034,2.0445977 22.4110345,1.19425287 22.4110345,1.19425287 C22.9466667,1.03655172 23.3,0.977701149 23.6974713,0.977701149 C24.6211494,0.977701149 25.1101149,1.39241379 25.1089655,2.17517241 C25.1108046,2.38597701 25.076092,2.64482759 25.0218391,2.98482759 C24.9285057,3.57632184 24.7278161,4.84551724 24.7009195,5.1537931 Z"></path>
                                    <path d="M12.5411494,5.09218391 C12.2468966,5.1845977 12.0174713,5.22482759 11.7689655,5.22482759 C11.2190805,5.22482759 10.9193103,4.90896552 10.9193103,4.32758621 C10.9117241,4.14666667 10.9986207,3.67195402 11.0668966,3.23862069 C11.1289655,2.85655172 11.5328736,0.450574713 11.5328736,0.450574713 L12.6013793,0.450574713 L12.4767816,1.06896552 L13.0252874,1.06896552 L12.8793103,2.05057471 L12.3287356,2.05057471 C12.2045977,2.82804598 12.0273563,3.79517241 12.0255172,3.92344828 C12.0255172,4.13471264 12.1381609,4.22597701 12.3937931,4.22597701 C12.5163218,4.22597701 12.6110345,4.21402299 12.6836782,4.18781609 L12.5411494,5.09218391 Z"></path>
                                    <path d="M15.817931,5.05931034 C15.4510345,5.17149425 15.0963218,5.22551724 14.7211494,5.22482759 C13.5248276,5.22367816 12.9011494,4.59885057 12.9011494,3.40229885 C12.9011494,2.00528736 13.6944828,0.977471264 14.7714943,0.977471264 C15.6526437,0.977471264 16.2154023,1.55287356 16.2154023,2.45609195 C16.2154023,2.75609195 16.1767816,3.04827586 16.083908,3.46091954 L13.9556322,3.46091954 C13.8836782,4.05356322 14.2629885,4.30068966 14.8845977,4.30068966 C15.2668966,4.30068966 15.6121839,4.2216092 15.9956322,4.04275862 L15.817931,5.05931034 Z M15.2172414,2.63655172 C15.2234483,2.55172414 15.3305747,1.90735632 14.72,1.90735632 C14.3797701,1.90735632 14.1363218,2.16758621 14.0370115,2.63655172 L15.2172414,2.63655172 Z"></path>
                                    <path d="M8.40781609,2.36045977 C8.40781609,2.87724138 8.6583908,3.23310345 9.22666667,3.50114943 C9.66229885,3.70597701 9.72965517,3.76666667 9.72965517,3.95195402 C9.72965517,4.20666667 9.53747126,4.3216092 9.11218391,4.3216092 C8.79126437,4.3216092 8.49310345,4.27149425 8.14873563,4.16045977 C8.14873563,4.16045977 8.00781609,5.06091954 8.00114943,5.10390805 C8.24528736,5.15701149 8.46321839,5.20574713 9.11977011,5.2245977 C10.2544828,5.2245977 10.7781609,4.79264368 10.7781609,3.85954023 C10.7781609,3.29793103 10.5590805,2.96850575 10.0202299,2.72091954 C9.56965517,2.51356322 9.51747126,2.46781609 9.51747126,2.27701149 C9.51747126,2.05609195 9.69632184,1.94275862 10.043908,1.94275862 C10.2547126,1.94275862 10.5429885,1.96597701 10.8163218,2.00482759 L10.9691954,1.05701149 C10.6910345,1.01310345 10.2689655,0.977471264 10.0232184,0.977471264 C8.82045977,0.977471264 8.40413793,1.60551724 8.40781609,2.36045977 Z"></path>
                                    <path d="M30.3914943,5.1537931 L29.3742529,5.1537931 L29.4248276,4.77356322 C29.1298851,5.08896552 28.8275862,5.22482759 28.4335632,5.22482759 C27.6521839,5.22482759 27.1356322,4.55103448 27.1356322,3.52965517 C27.1356322,2.1708046 27.9365517,1.02528736 28.8848276,1.02528736 C29.3018391,1.02528736 29.6177011,1.19563218 29.9114943,1.58229885 L30.1501149,0.130804598 L31.2103448,0.130804598 L30.3914943,5.1537931 Z M28.8052874,4.20988506 C29.305977,4.20988506 29.6577011,3.64252874 29.6577011,2.83333333 C29.6577011,2.31425287 29.4574713,2.03287356 29.088046,2.03287356 C28.6004598,2.03287356 28.254023,2.60206897 28.254023,3.40528736 C28.2542529,3.93954023 28.4393103,4.20988506 28.8052874,4.20988506 Z"></path>
                                    <path d="M25.6694253,1.06896552 C25.5347126,2.33356322 25.2956322,3.61402299 25.1087356,4.87931034 L25.0595402,5.1537931 L26.1349425,5.1537931 C26.5197701,2.65586207 26.6126437,2.16804598 27.2156322,2.2291954 C27.3117241,1.71770115 27.4905747,1.26988506 27.623908,1.04413793 C27.1735632,0.950344828 26.922069,1.20482759 26.5928736,1.68827586 C26.6188506,1.47931034 26.6664368,1.27632184 26.6570115,1.06896552 L25.6694253,1.06896552 Z"></path>
                                    <path d="M16.8186207,1.06896552 C16.6836782,2.33356322 16.4445977,3.61402299 16.2577011,4.87931034 L16.2087356,5.1537931 L17.2845977,5.1537931 C17.6689655,2.65586207 17.7616092,2.16804598 18.3643678,2.2291954 C18.4609195,1.71770115 18.6397701,1.26988506 18.7726437,1.04413793 C18.3227586,0.950344828 18.0710345,1.20482759 17.742069,1.68827586 C17.768046,1.47931034 17.8151724,1.27632184 17.8062069,1.06896552 L16.8186207,1.06896552 Z"></path>
                                    <path d="M30.8634483,4.83425287 C30.8634483,4.65701149 31.0066667,4.51402299 31.1832184,4.51402299 C31.3602299,4.51402299 31.5032184,4.65678161 31.5032184,4.83425287 C31.5032184,5.01057471 31.3602299,5.15402299 31.1832184,5.15402299 C31.0066667,5.1537931 30.8634483,5.01034483 30.8634483,4.83425287 Z M31.1832184,5.07701149 C31.3177011,5.07701149 31.4264368,4.96781609 31.4264368,4.83402299 C31.4264368,4.69977011 31.3177011,4.59057471 31.1832184,4.59057471 C31.0489655,4.59057471 30.94,4.69977011 30.94,4.83402299 C30.94,4.96804598 31.0489655,5.07701149 31.1832184,5.07701149 Z M31.14,4.9737931 L31.0744828,4.9737931 L31.0744828,4.69333333 L31.1935632,4.69333333 C31.217931,4.69333333 31.2436782,4.6937931 31.2650575,4.70735632 C31.2882759,4.72298851 31.3011494,4.74988506 31.3011494,4.77793103 C31.3011494,4.80965517 31.2825287,4.83931034 31.2521839,4.85034483 L31.3041379,4.9737931 L31.2312644,4.9737931 L31.1882759,4.86321839 L31.1402299,4.86321839 L31.1402299,4.9737931 L31.14,4.9737931 Z M31.14,4.81494253 L31.176092,4.81494253 C31.1896552,4.81494253 31.2043678,4.81609195 31.2163218,4.80965517 C31.2271264,4.80275862 31.2326437,4.78965517 31.2326437,4.77724138 C31.2326437,4.76666667 31.2262069,4.75425287 31.2167816,4.74827586 C31.2055172,4.74183908 31.1868966,4.74344828 31.1747126,4.74344828 L31.14,4.74344828 L31.14,4.81494253 Z"></path>
                                </g>
                            </g>
                        </g>
                    </g>
                </g>
            </g>
        </g>
    </g>
</svg>