<?xml version="1.0" encoding="utf-8"?>
<!-- Generator: Adobe Illustrator 16.0.0, SVG Export Plug-In . SVG Version: 6.00 Build 0)  -->
<!DOCTYPE svg PUBLIC "-//W3C//DTD SVG 1.1//EN" "http://www.w3.org/Graphics/SVG/1.1/DTD/svg11.dtd">
<svg version="1.1" id="Thalys" xmlns="http://www.w3.org/2000/svg" xmlns:xlink="http://www.w3.org/1999/xlink" x="0px" y="0px"
	 width="260px" height="80px" viewBox="0 0 260 80" enable-background="new 0 0 260 80" xml:space="preserve">
<g>
	<g>
		<g>
			<defs>
				<path id="SVGID_1_" d="M175,30c0-0.5,0.2-0.7,0.4-0.8c0.199-0.1,0.3-0.1,0.6-0.3c0.4-0.2,0.6-0.4,0.2-1c-0.4-0.6-1.5-2.3-2-3.2
					c-0.4-0.6-0.4-1-0.4-1.4v-1.4c0-2.6-1.7-5.7-3.6-6.6c-2.3-1.1-5.101-0.9-9,0.6c-3.9,1.5-6.601,4.1-11.4,6
					c-7.899,3.1-14.7,1.4-15.3-2.6c4,0,7.2-1.1,9.1-2c1.9-0.9,9.9-4.2,12-4.8C179.7,6,182.6,29.2,177.4,35.6
					c-0.5,0.6-0.2,0.7,0.199,0.7c0.4,0,37.2,3.9,37.2,3.9l0.2,0.5h-41.3c-1.2,0-2.7-0.9-3.3-1.7c-0.601-0.8-2.601-3.8-2.601-3.8
					c2.101,0.2,4.601,0.3,5.2,0.3c1.1,0,2.1-0.7,2.1-1.7V30"/>
			</defs>
			<clipPath id="SVGID_2_">
				<use xlink:href="#SVGID_1_"  overflow="visible"/>
			</clipPath>
			<rect x="129.3" y="6.2" clip-path="url(#SVGID_2_)" fill="#912D3F" width="90.5" height="39.399"/>
		</g>
	</g>
	<g>
		<g>
			<defs>
				<path id="SVGID_3_" d="M146.5,44c0.8,0.5,2.7,0.4,3.4,0.2c1.1-0.2,13.5-1.8,15-1.8c-0.9-0.9-3-3.101-3.4-3.5c-1-1-2-1.6-4.4-1.2
					c-4.8,0.8-9.8,2.7-12.8,4L146.5,44"/>
			</defs>
			<clipPath id="SVGID_4_">
				<use xlink:href="#SVGID_3_"  overflow="visible"/>
			</clipPath>
			<rect x="139.2" y="32.7" clip-path="url(#SVGID_4_)" fill="#912D3F" width="30.6" height="16.7"/>
		</g>
	</g>
	<g>
		<g>
			<defs>
				<path id="SVGID_5_" d="M106.9,69.4c-2.1,0.899-2.9,0.899-4.2-0.4c-0.9-0.9-3.5-3.4-3.5-3.4C138.4,48.9,212.5,42.4,232.5,42.8
					l0.3,0.7C198.3,45.5,135.6,56.2,106.9,69.4"/>
			</defs>
			<clipPath id="SVGID_6_">
				<use xlink:href="#SVGID_5_"  overflow="visible"/>
			</clipPath>
			<rect x="94.2" y="37.8" clip-path="url(#SVGID_6_)" fill="#912D3F" width="143.6" height="37.2"/>
		</g>
	</g>
	<g>
		<g>
			<defs>
				<path id="SVGID_7_" d="M16.3,23.1h-5H10H5.3h-1H3.9L3,28.2h0.6c0.8,0,1.1,0,1.4-0.3c0.3-0.2,0.4-0.5,0.7-1.1L6,26
					c0.1-0.1,0.2-0.5,0.2-0.5l0,0c0.4-0.1,1.2-0.1,2.4-0.1l-1.1,9.2C7.2,37,7,37.9,6.3,38.9l-0.5,0.8h0.9c0.5,0,0.6,0,1,0H8h2.5h0.2
					c0.7,0,1.1,0,1.5-0.5c0.3-0.3,0.4-0.5,0.6-1l0.3-0.6h-1.3c-0.5,0-0.8,0-1,0c0.1-0.2,0.1-0.4,0.1-0.7c0.2-0.7,0.4-2,0.5-3
					c0,0,0.8-6.7,1-8.4c1.2,0,2.3,0,2.7,0.1c0,0.3,0.1,1.1,0.1,1.7l0.1,0.7v0.4h0.4c1.2,0,1.6-0.4,1.8-1.6l0.5-3.6h-0.6L16.3,23.1"
					/>
			</defs>
			<clipPath id="SVGID_8_">
				<use xlink:href="#SVGID_7_"  overflow="visible"/>
			</clipPath>
			<rect x="-2" y="18" clip-path="url(#SVGID_8_)" fill="#912D3F" width="25.1" height="26.6"/>
		</g>
	</g>
	<g>
		<g>
			<defs>
				<polyline id="SVGID_9_" points="38.7,39 38.6,39 38.6,39.1 38.7,39 				"/>
			</defs>
			<clipPath id="SVGID_10_">
				<use xlink:href="#SVGID_9_"  overflow="visible"/>
			</clipPath>
			<rect x="33.6" y="34" clip-path="url(#SVGID_10_)" fill="#912D3F" width="10" height="10"/>
		</g>
	</g>
	<g>
		<g>
			<defs>
				<path id="SVGID_11_" d="M37.6,35.7c0.1-0.7,0.3-1.7,0.3-2.3l0.5-4c0.2-1.3,0.4-3.2,0.5-3.7s0.1-1,0.2-1.4v-0.1
					c0-0.2,0.1-0.3,0.1-0.5l0.2-0.6h-0.7c-0.5,0-0.6,0-1.2,0h-1.3h-0.6c-0.4,0-0.6,0-0.7,0c-0.3,0-0.6,0.2-0.8,0.4
					c-0.3,0.3-0.4,0.5-0.6,1.1l-0.3,0.7l0.7-0.1c0.3,0,0.4,0,0.6,0c0.3,0,0.6,0,0.9,0c0,0.2-0.1,0.4-0.1,0.7
					c-0.1,0.7-0.2,1.1-0.2,1.8v0.1c0,0-0.2,1.5-0.3,2.2h-6l0.1-0.6l0.5-3.8c0.1-0.5,0.2-0.9,0.2-1.3c0-0.3,0.1-0.4,0.1-0.6L30,23
					h-0.7c-0.4,0-0.6,0-1.2,0h-1.4h-0.6c-0.7,0-1.1,0-1.5,0.5c-0.2,0.3-0.4,0.5-0.6,1.1l-0.3,0.7l0.8-0.1c0.3,0,0.4,0,0.6,0
					c0.3,0,0.6,0,0.9,0c-0.1,0.6-0.3,1.5-0.4,2.5l-0.9,7c-0.1,1.1-0.3,2.1-0.4,2.7c-0.1,0.5-0.2,0.8-0.4,1.2l0,0l0,0l-0.1,0.2
					l-0.2,0.7h0.7c0.5,0,0.6,0,1,0h0.2h2h0.2c0.7,0,1.1-0.1,1.5-0.5c0.3-0.2,0.4-0.5,0.6-1l0.3-0.6h-1.2c-0.4,0-0.7,0-1,0
					c0-0.2,0.1-0.3,0.1-0.6c0.1-0.5,0.1-0.9,0.2-1.1c0.1-0.6,0.3-1.6,0.3-2.3c0,0,0.1-0.6,0.1-1h6l-0.3,2.5c-0.1,0.9-0.3,2-0.5,2.6
					c-0.1,0.5-0.2,0.8-0.4,1.3l0,0l0,0l-0.3,0.9h0.7c0.5,0,0.6,0,1,0H35h2.1h0.2c0.7,0,1.1-0.1,1.5-0.5c0.3-0.2,0.4-0.5,0.6-1
					l0.3-0.6h-1.2c-0.4,0-0.7,0-1,0c0-0.2,0.1-0.3,0.1-0.6C37.5,36.2,37.6,35.9,37.6,35.7"/>
			</defs>
			<clipPath id="SVGID_12_">
				<use xlink:href="#SVGID_11_"  overflow="visible"/>
			</clipPath>
			<rect x="18.6" y="18" clip-path="url(#SVGID_12_)" fill="#912D3F" width="26" height="26.6"/>
		</g>
	</g>
	<g>
		<g>
			<defs>
				<polyline id="SVGID_13_" points="29.1,39 29.1,39 29.1,39.1 29.1,39 				"/>
			</defs>
			<clipPath id="SVGID_14_">
				<use xlink:href="#SVGID_13_"  overflow="visible"/>
			</clipPath>
			<rect x="24.1" y="34" clip-path="url(#SVGID_14_)" fill="#912D3F" width="10" height="10"/>
		</g>
	</g>
	<g>
		<g>
			<defs>
				<path id="SVGID_15_" d="M60.7,37.4c-0.3,0-0.7,0-1-0.1L56.9,23h-0.4c-0.5,0-0.6,0-1.2,0h-2.2c-0.8,0-1,0-1.3,0.2h0.1
					c-0.4,0.1-0.8,0.5-1.1,1.1l0,0l0,0l-0.1,0.2l-0.3,0.7l0.8-0.1c0.5,0,0.7,0,1.2-0.1L48,33.5c-0.1,0.3-0.3,0.6-0.6,1.1
					c-0.5,1-0.9,1.7-1.2,2.2c-0.2,0.5-0.5,0.9-0.7,1.2s-0.2,0.3-0.4,0.5l-0.7,0.8h1.1c0.6,0,0.8,0,1.4,0s0.7,0,1.2,0h0.4l0.1-0.4
					c0.1-0.5,0.3-0.8,0.7-1.8l1.6-3.4c0,0,0.1-0.3,0.2-0.6h4.3l0.3,1.5c0.3,1.8,0.5,2.9,0.5,3.5c0,0.3,0,0.3,0,0.6v0.5h0.5
					c0.5,0,0.7,0,1,0h0.2h1.6h0.2c0.7,0,1.1-0.1,1.5-0.5c0.3-0.2,0.4-0.5,0.6-1l0.3-0.6h-1.4V37.4z M54.4,28.5
					c0.1,0.8,0.2,1.5,0.4,2.3c0,0,0,0.2,0.1,0.3H52l2.1-4.4C54.2,27.3,54.3,27.9,54.4,28.5z"/>
			</defs>
			<clipPath id="SVGID_16_">
				<use xlink:href="#SVGID_15_"  overflow="visible"/>
			</clipPath>
			<rect x="39.2" y="18" clip-path="url(#SVGID_16_)" fill="#912D3F" width="27.5" height="26.6"/>
		</g>
	</g>
	<g>
		<g>
			<defs>
				<polyline id="SVGID_17_" points="60.8,39 60.8,39 60.8,39.1 60.8,39 				"/>
			</defs>
			<clipPath id="SVGID_18_">
				<use xlink:href="#SVGID_17_"  overflow="visible"/>
			</clipPath>
			<rect x="55.8" y="34" clip-path="url(#SVGID_18_)" fill="#912D3F" width="10" height="10"/>
		</g>
	</g>
	<g>
		<g>
			<defs>
				<path id="SVGID_19_" d="M78.1,34.6c-0.2,0.2-0.4,0.5-0.7,1.1L77,36.5c-0.2,0.4-0.3,0.5-0.3,0.6c-0.1,0.1-0.7,0.1-1.7,0.1
					c-0.5,0-1.1,0-1.7,0h-0.2c0.2-1,0.4-2.4,0.6-3.8l0.5-4c0.2-1.6,0.3-2.5,0.5-3.7c0.1-0.3,0.1-0.5,0.2-0.8l0,0l0,0
					c0-0.4,0.1-0.7,0.2-0.9l0.1-0.2l0.2-0.6h-1.8h-1.7h-0.7c-0.4,0-0.6,0-0.7,0c-0.3,0-0.6,0.2-0.8,0.4c-0.2,0.3-0.4,0.5-0.6,1.1
					l-0.3,0.7l0.8-0.1c0.3,0,0.4,0,0.6,0c0.3,0,0.7,0,1,0c-0.1,0.7-0.2,1.5-0.4,2.5l-0.9,7c-0.2,1.3-0.4,2.4-0.6,3.1
					c-0.1,0.4-0.2,0.6-0.4,1l-0.3,0.7l0.8-0.1c0.7-0.1,1.2-0.1,2-0.1h0.2l0,0l0,0l7,0.1H79l1-5.2h-0.6
					C78.8,34.3,78.4,34.3,78.1,34.6"/>
			</defs>
			<clipPath id="SVGID_20_">
				<use xlink:href="#SVGID_19_"  overflow="visible"/>
			</clipPath>
			<rect x="63.6" y="18.1" clip-path="url(#SVGID_20_)" fill="#912D3F" width="21.4" height="26.5"/>
		</g>
	</g>
	<g>
		<g>
			<defs>
				<path id="SVGID_21_" d="M100,23.1c-0.6,0-0.9,0-1.5,0h-0.4L98,23.4c-0.2,0.5-0.3,0.8-0.9,1.7c-1,1.7-1.6,2.8-1.9,3.2
					c0,0-0.6,1-1,1.7l-0.4-1.1l-0.4-1.1c-0.6-1.6-1.1-3-1.3-3.7C92,23.9,92,23.8,92,23.5l-0.1-0.4h-0.4c-0.5,0-0.6,0-1.2,0h-1h-0.5
					c-0.4,0-0.5,0-0.7,0c-0.3,0-0.6,0.2-0.8,0.4c-0.3,0.3-0.4,0.5-0.6,1l-0.3,0.7l0.8-0.1c0.3,0,0.4,0,0.5,0c0.3,0,0.5,0,0.8,0.1
					l3,7.6l-0.2,1.9c-0.2,1.3-0.4,2.4-0.6,3.1c-0.1,0.4-0.2,0.6-0.4,1L90,39.5h0.8c0.5,0,0.6,0,1,0H92h2.1h0.2
					c0.7,0,1.1-0.1,1.5-0.5c0.3-0.2,0.4-0.5,0.6-1l0.3-0.6h-1.2c-0.4,0-0.7,0-1,0c0-0.2,0.1-0.4,0.1-0.6l0.4-2.1l0.1-0.8
					c0,0,0.1-0.6,0.1-0.8l3-4.4l0.7-1l1.5-2.1c0.8-1.1,0.9-1.2,1.2-1.6l0.9-0.9l-1.2,0.1C100.8,23.1,100.6,23.1,100,23.1"/>
			</defs>
			<clipPath id="SVGID_22_">
				<use xlink:href="#SVGID_21_"  overflow="visible"/>
			</clipPath>
			<rect x="81.4" y="18" clip-path="url(#SVGID_22_)" fill="#912D3F" width="26.1" height="26.6"/>
		</g>
	</g>
	<g>
		<g>
			<defs>
				<polyline id="SVGID_23_" points="95.8,39 95.8,39 95.7,39.1 95.8,39 				"/>
			</defs>
			<clipPath id="SVGID_24_">
				<use xlink:href="#SVGID_23_"  overflow="visible"/>
			</clipPath>
			<rect x="90.7" y="34" clip-path="url(#SVGID_24_)" fill="#912D3F" width="10" height="10"/>
		</g>
	</g>
	<g>
		<g>
			<defs>
				<path id="SVGID_25_" d="M119.6,23.6c-1.5-0.6-3-0.8-4.6-0.8c-1.8,0-3.3,0.5-4.3,1.4c-1.1,0.9-1.8,2.4-1.8,3.8
					c0,1.1,0.4,2,1.2,2.7c0.4,0.4,0.8,0.6,1.7,1l2.4,1.3c0.6,0.3,0.8,0.5,1.2,0.7c0.4,0.4,0.7,0.9,0.7,1.5c0,1.9-2,2.1-2.8,2.1
					c-0.4,0-0.9,0-1.4-0.1c-0.7-0.2-0.9-0.3-1-0.3c-0.1-0.2-0.1-1.2-0.2-1.7v-0.6v-0.5h-0.5c-1.2,0-1.7,0.4-1.8,1.6l-0.4,2.8
					l-0.1,0.4l0.4,0.1c1.6,0.6,2.9,0.9,4.4,0.9c4,0,6.8-2.3,6.8-5.6c0-1.8-0.7-2.8-2.8-4l-0.5-0.3l-2.5-1.3
					c-0.3-0.2-0.7-0.4-0.9-0.7c-0.4-0.3-0.5-0.5-0.5-1c0-0.4,0.1-0.8,0.4-1.1c0.5-0.5,1.2-0.7,2.2-0.7c0.8,0,1.5,0.1,2.2,0.4h0.1
					c0.1,0.3,0.1,0.9,0.2,2.4v0.5h0.5c1.2-0.1,1.7-0.4,1.8-1.6l0.399-3L119.6,23.6"/>
			</defs>
			<clipPath id="SVGID_26_">
				<use xlink:href="#SVGID_25_"  overflow="visible"/>
			</clipPath>
			<rect x="102.8" y="17.8" clip-path="url(#SVGID_26_)" fill="#912D3F" width="22.101" height="27"/>
		</g>
	</g>
</g>
</svg>
