<?xml version="1.0" encoding="UTF-8"?>
<svg width="30px" height="20px" viewBox="0 0 30 20" version="1.1" xmlns="http://www.w3.org/2000/svg" xmlns:xlink="http://www.w3.org/1999/xlink">
    <!-- Generator: Sketch 49 (51002) - http://www.bohemiancoding.com/sketch -->
    <title>visa</title>
    <desc>Created with Sketch.</desc>
    <defs></defs>
    <g id="Zoeken-3.0" stroke="none" stroke-width="1" fill="none" fill-rule="evenodd">
        <g id="VD-Homepage-boeker-met-Betaal-iconen_Desktop" transform="translate(-1216.000000, -827.000000)">
            <g id="Zoek-balk---passagiers---1200" transform="translate(134.000000, 470.000000)">
                <g id="Group-2" transform="translate(0.000000, 335.000000)">
                    <g id="Betaalopties" transform="translate(1009.000000, 22.000000)">
                        <g id="visa" transform="translate(73.000000, 0.000000)">
                            <polygon id="Shape" fill="#005597" fill-rule="nonzero" points="28.5591883 19.5572631 0.493613967 19.5572631 0 19.5572631 0 19.0634838 0 0.493613967 0 0 0.493613967 0 28.5591883 0 29.0528023 0 29.0528023 0.493613967 29.0528023 19.0634838 29.0528023 19.5572631"></polygon>
                            <polygon id="Shape" fill="#FFFFFF" points="28.5591883 19.0634838 0.493613967 19.0634838 0.493613967 0.493613967 28.5591883 0.493613967"></polygon>
                            <polygon id="Shape" fill="#005597" points="10.6373314 12.7942889 12.4600332 6.78446444 14.0861821 6.78446444 12.263315 12.7942889"></polygon>
                            <path d="M9.91013521,6.78611754 L8.44714672,9.33386652 C8.07486988,10.0010554 7.85699205,10.3381213 7.75235118,10.7596604 L7.7300344,10.7596604 C7.75598798,10.2253803 7.68143343,9.56893654 7.67449043,9.19798217 L7.51281781,6.78611754 L4.77529359,6.78611754 L4.74719099,6.94795547 C5.45041732,6.94795547 5.86749302,7.30122173 5.98238307,8.02395457 L6.51600192,12.7944542 L8.20083567,12.7944542 L11.6076978,6.78611754 L9.91013521,6.78611754 Z" id="Shape" fill="#005597"></path>
                            <path d="M22.557464,12.7942889 L22.5126651,11.9006261 L20.4818388,11.898973 L20.0664162,12.7942889 L18.3005808,12.7942889 L21.5021286,6.7958708 L23.6693353,6.7958708 L24.2113849,12.7942889 L22.557464,12.7942889 Z M22.3708297,9.2493934 C22.3528109,8.80520695 22.3377678,8.20248876 22.3676888,7.83748553 L22.3437189,7.83748553 C22.2446986,8.13586906 21.819688,9.03168088 21.6325577,9.47239583 L21.0275252,10.7895814 L22.4534844,10.7895814 L22.3708297,9.2493934 Z" id="Shape" fill="#005597"></path>
                            <path d="M15.7934979,12.9652188 C14.6454239,12.9652188 13.8833474,12.6010422 13.3394794,12.2762091 L14.1141194,11.0932548 C14.6024435,11.366346 14.9859613,11.6815911 15.8683831,11.6815911 C16.1518888,11.6815911 16.4251453,11.6080284 16.5805361,11.3390699 C16.8066794,10.9481131 16.5284637,10.7378395 15.8931795,10.3782915 L15.5795875,10.1742997 C14.6376544,9.53075006 14.2303319,8.91960108 14.6736918,7.852694 C14.9575281,7.17013135 15.7057186,6.65287814 16.9400842,6.65287814 C17.7910971,6.65287814 18.5893764,7.02102224 19.0543918,7.38090088 L18.1637046,8.42549119 C17.7097649,8.05850425 17.3336859,7.87286175 16.9032202,7.87286175 C16.5600378,7.87286175 16.2993448,8.00527461 16.2094165,8.1838088 C16.0399743,8.51938694 16.2639686,8.74834051 16.758905,9.05532013 L17.1321737,9.29270447 C18.2754538,10.0139495 18.5478837,10.7700749 18.2614025,11.4767727 C17.7681191,12.6936154 16.8030426,12.9652188 15.7934979,12.9652188 Z" id="Shape" fill="#005597"></path>
                            <path d="M24.6957415,7.59894402 L24.6253197,7.59894402 L24.6253197,7.17013135 L24.7879842,7.17013135 C24.8914679,7.17013135 24.9443669,7.20633412 24.9443669,7.29345219 C24.9443669,7.37114762 24.8967578,7.40321765 24.8324524,7.41049127 L24.9524671,7.59894402 L24.8727879,7.59894402 L24.7620306,7.41561586 L24.6957415,7.41561586 L24.6957415,7.59894402 Z M24.7744288,7.35560854 C24.8271625,7.35560854 24.8739451,7.35048394 24.8739451,7.2883276 C24.8739451,7.23658574 24.8231951,7.23030399 24.7808759,7.23030399 L24.6957415,7.23030399 L24.6957415,7.35560854 L24.7744288,7.35560854 Z M24.7722798,7.76474938 C24.549608,7.76474938 24.3910762,7.59795216 24.3910762,7.37742938 C24.3910762,7.14434308 24.5671308,6.99010938 24.7722798,6.99010938 C24.9754451,6.99010938 25.1513343,7.14450839 25.1513343,7.37742938 C25.1513343,7.61035037 24.9754451,7.76474938 24.7722798,7.76474938 Z M24.7722798,7.05722501 C24.6044907,7.05722501 24.4740616,7.18881132 24.4740616,7.37742938 C24.4740616,7.55348393 24.5879598,7.69746844 24.7722798,7.69746844 C24.9380852,7.69746844 25.0685143,7.5670393 25.0685143,7.37742938 C25.0685143,7.18881132 24.9380852,7.05722501 24.7722798,7.05722501 Z" id="Shape" fill="#005597"></path>
                            <polygon id="Shape" fill="#F8AB10" points="27.8681949 14.660963 1.23403492 14.660963 1.23403492 18.2243731 27.8681949 18.2243731"></polygon>
                            <polygon id="Shape" fill="#005597" points="27.8187673 1.38215217 1.18477271 1.38215217 1.18477271 4.94572762 27.8187673 4.94572762"></polygon>
                            <path d="M27.2104286,17.9709538 L27.1400068,17.9709538 L27.1400068,17.5421411 L27.302506,17.5421411 C27.406155,17.5421411 27.4588887,17.5783439 27.4588887,17.6651313 C27.4588887,17.7429921 27.4112796,17.7752274 27.3469742,17.7823357 L27.4671542,17.9709538 L27.387475,17.9709538 L27.2767177,17.7876256 L27.2104286,17.7876256 L27.2104286,17.9709538 Z M27.2891159,17.727453 C27.3418496,17.727453 27.3884669,17.7223284 27.3884669,17.6600067 C27.3884669,17.6084302 27.3377169,17.6021484 27.2953977,17.6021484 L27.2104286,17.6021484 L27.2104286,17.727453 L27.2891159,17.727453 Z M27.2869669,18.1365938 C27.0642951,18.1365938 26.9057633,17.9696313 26.9057633,17.7491085 C26.9057633,17.5160222 27.0816526,17.3616232 27.2869669,17.3616232 C27.4899669,17.3616232 27.6660214,17.5160222 27.6660214,17.7491085 C27.6660214,17.9821948 27.4899669,18.1365938 27.2869669,18.1365938 Z M27.2869669,17.4292348 C27.1190125,17.4292348 26.9885834,17.5606558 26.9885834,17.7492738 C26.9885834,17.9251631 27.1024816,18.0693129 27.2869669,18.0693129 C27.4526069,18.0693129 27.5830361,17.9388838 27.5830361,17.7492738 C27.5830361,17.5606558 27.4526069,17.4292348 27.2869669,17.4292348 Z" id="Shape" fill="#005597"></path>
                        </g>
                    </g>
                </g>
            </g>
        </g>
    </g>
</svg>